<?xml version="1.0" encoding="UTF-8"?>
<svg width="111px" height="43px" viewBox="0 0 111 43" version="1.1" xmlns="http://www.w3.org/2000/svg" xmlns:xlink="http://www.w3.org/1999/xlink">
    <!-- Generator: Sketch 50.2 (55047) - http://www.bohemiancoding.com/sketch -->
    <title>LOGO_desktop</title>
    <desc>Created with Sketch.</desc>
    <defs></defs>
    <g id="Web-V2" stroke="none" stroke-width="1" fill="none" fill-rule="evenodd">
        <g id="Home_desktop" transform="translate(-154.000000, -3158.000000)" fill="#F27321">
            <g id="Kit/Footer" transform="translate(0.000000, 3117.000000)">
                <g id="Group-9" transform="translate(154.000000, 41.000000)">
                    <g id="LOGO_desktop">
                        <path d="M97.4052295,33.2776957 C97.2605656,33.7807826 97.0822377,34.2902609 96.8666066,34.8125217 C96.6591639,35.3375217 96.4180574,35.847 96.1405574,36.3473478 C95.8694262,36.8486087 95.5646311,37.2932609 95.2289016,37.6822174 C94.8968115,38.0766522 94.5356066,38.3916522 94.1416475,38.6299565 C93.7458689,38.870087 93.3291639,38.9878696 92.8851639,38.9878696 C92.4620902,38.9878696 92.2500984,38.8098261 92.2500984,38.4482609 C92.2500984,38.2227391 92.3310738,37.9387826 92.4912049,37.5991304 C92.6495164,37.254 92.8633279,36.8860435 93.139918,36.4888696 C93.4101393,36.0916957 93.7331311,35.6762609 94.0961557,35.2471304 C94.461,34.8152609 94.838582,34.3952609 95.2507377,33.9898696 C95.6537951,33.5844783 96.0714098,33.2073913 96.4972131,32.8549565 C96.9257459,32.4997826 97.3406311,32.1966522 97.7527869,31.9437391 C97.6699918,32.3345217 97.5471639,32.7782609 97.4052295,33.2776957 Z M84.5110328,21.2282609 C84.4719098,21.5414348 84.3809262,21.9340435 84.2362623,22.3996957 C84.0961475,22.869 83.905082,23.3246087 83.6758033,23.7646957 C83.4437951,24.2075217 83.1699344,24.5809565 82.8542213,24.8996087 C82.5375984,25.2063913 82.1818525,25.3698261 81.7997213,25.3698261 C81.5495164,25.3698261 81.3475328,25.3077391 81.1946803,25.1972609 C81.035459,25.0813043 80.908082,24.9388696 80.8216475,24.7544348 C80.7224754,24.5754783 80.6515082,24.3727826 80.6196639,24.1426957 C80.580541,23.9116957 80.5623443,23.6715652 80.5623443,23.4323478 C80.5623443,23.0013913 80.6214836,22.5393913 80.741582,22.050913 C80.8625902,21.5596957 81.035459,21.0712174 81.257459,20.5900435 C81.4812787,20.1043043 81.7424016,19.6413913 82.0481066,19.2022174 C82.3529016,18.7639565 82.684082,18.3695217 83.0516557,18.0271304 C83.4128607,17.6856522 83.8013607,17.4163043 84.2126066,17.2108696 C84.6220328,17.010913 85.0432869,16.9104783 85.4745492,16.9104783 L84.5110328,21.2282609 Z M71.745123,17.1296087 L71.745123,16.9862609 L71.745123,16.3535217 C71.745123,16.0814348 71.5431393,15.7600435 71.5540574,15.3911739 C71.5695246,15.0250435 71.4803607,14.6196522 71.5049262,14.175 C71.5313115,13.7303478 71.5167541,13.2656087 71.5613361,12.789 C71.5859016,12.5497826 71.600459,12.1562609 71.6650574,11.5993043 C71.7232869,11.0405217 71.7960738,10.4141739 71.8988852,9.71843478 C72.0044262,9.02452174 72.1327131,8.30321739 72.2855656,7.56273913 C72.4475164,6.81678261 72.6303934,6.13656522 72.8360164,5.52117391 C73.0480082,4.90304348 73.2891148,4.39630435 73.5675246,4.00278261 C73.8359262,3.6056087 74.1498197,3.40565217 74.4819098,3.40565217 C74.6729754,3.40565217 74.8149098,3.50882609 74.9168115,3.71517391 C75.0168934,3.91786957 75.0687541,4.28582609 75.0687541,4.8153913 C75.0687541,5.21713043 75.0323607,5.75947826 74.9723115,6.44243478 C74.9168115,6.96378261 74.8276475,7.51069565 74.6929918,8.08956522 C74.5610656,8.6666087 74.4045738,9.25369565 74.2235164,9.84808696 C74.0506475,10.4488696 73.8495738,11.0405217 73.6384918,11.6358261 C73.4228607,12.2265652 73.4092131,12.789 73.1999508,13.3286087 C72.6977213,14.594087 72.2973934,15.8577391 71.745123,17.1296087 Z M66.9748525,23.561087 C66.8511148,23.7555652 66.7073607,23.9454783 66.5590574,24.1271739 C66.4016557,24.3079565 66.2433443,24.4704783 66.0759344,24.6092609 C65.9057951,24.7544348 65.7274672,24.8685652 65.5436803,24.9543913 C65.3571639,25.0456957 65.1742869,25.0867826 64.9832213,25.0867826 C64.6138279,25.0867826 64.3144918,25.0402174 64.0870328,24.9416087 C63.8513852,24.8448261 63.6721475,24.717 63.5502295,24.5590435 C63.4219426,24.402913 63.3336885,24.2257826 63.286377,24.0331304 C63.2354262,23.834087 63.2190492,23.6414348 63.2190492,23.4433043 C63.2190492,22.9566522 63.3082131,22.4033478 63.5020082,21.7998261 C63.6903443,21.1935652 63.9714836,20.5909565 64.3290492,19.992913 C64.6984426,19.3966957 65.1442623,18.8397391 65.6892541,18.3293478 C66.2324262,17.8143913 66.8511148,17.3989565 67.5398607,17.0848696 C67.5553279,17.0766522 67.5635164,17.1743478 67.5744344,17.3806957 C67.5871721,17.5843043 67.5944508,17.8527391 67.6008197,18.1759565 C67.604459,18.4955217 67.615377,18.8506957 67.6235656,19.2460435 C67.6308443,19.6368261 67.6454016,20.0175652 67.6517705,20.3836957 C67.6672377,20.7498261 67.6845246,21.083087 67.699082,21.3834783 C67.726377,21.6811304 67.7473033,21.8975217 67.7791475,22.0353913 C67.5353115,22.6023913 67.271459,23.1118696 66.9748525,23.561087 Z M51.4266639,20.5087826 C51.4485,20.2047391 51.4912623,19.8915652 51.5595,19.5683478 C51.6268279,19.2460435 51.7287295,18.9255652 51.8606557,18.6096522 C51.9898525,18.2891739 52.1663607,18.0043043 52.3829016,17.7550435 C52.5985328,17.5048696 52.8696639,17.303087 53.1871967,17.1478696 C53.5110984,16.9917391 53.8977787,16.9104783 54.350877,16.9104783 C54.6038115,16.9104783 54.8148934,17.052 54.9941311,17.3359565 C55.167,17.6217391 55.2488852,17.9805652 55.2488852,18.4224783 C55.2488852,18.7338261 55.1251475,19.0588696 54.8549262,19.3930435 C54.5938033,19.7235652 54.268082,20.034 53.885041,20.3152174 C53.5038197,20.601913 53.0852951,20.8347391 52.6394754,21.0173478 C52.1936557,21.1990435 51.7742213,21.2839565 51.3920902,21.2839565 C51.3920902,21.0712174 51.4030082,20.811 51.4266639,20.5087826 Z M110.223,20.9041304 C111.066418,21.7724348 109.185787,24.1783043 109.185787,24.1783043 C108.996541,24.4841739 108.284139,25.2018261 107.984803,25.5204783 C107.684557,25.8382174 107.355197,26.1577826 106.989443,26.4782609 C106.623689,26.7932609 106.246107,27.1009565 105.848508,27.3986087 C105.453639,27.699913 105.065139,27.9783913 104.689377,28.244087 C103.791369,28.8695217 102.828762,29.4748696 101.795189,30.0637826 C101.595025,31.1101304 101.358467,32.130913 101.085516,33.1270435 C100.817115,34.1186087 100.486844,35.049 100.112902,35.9163913 C99.7398689,36.7819565 99.3158852,37.5763043 98.8336721,38.2985217 C98.3523689,39.0234783 97.8137459,39.647087 97.2096148,40.1656957 C96.6027541,40.6861304 95.9258361,41.0869565 95.1779508,41.3763913 C94.4246066,41.6594348 93.6002951,41.8082609 92.6968279,41.8082609 C92.3374426,41.8082609 91.9534918,41.7735652 91.5322377,41.706 C91.120082,41.6338696 90.7361311,41.4996522 90.3822049,41.2914783 C90.0291885,41.0869565 89.7353115,40.7947826 89.5033033,40.4140435 C89.2731148,40.0314783 89.1548361,39.5274783 89.1548361,38.8865217 C89.1548361,38.4482609 89.2803934,37.9488261 89.5224098,37.3973478 C89.7662459,36.8422174 90.1001557,36.2615217 90.5123115,35.6497826 C90.9353852,35.0398696 91.4330656,34.4025652 92.0217295,33.7433478 C92.5967459,33.0804783 93.2272623,32.424913 93.9096393,31.7666087 C94.5865574,31.1101304 95.2935,30.4664348 96.0395656,29.8291304 C96.7829016,29.1945652 97.5335164,28.5892174 98.2914098,28.0103478 L98.7172131,26.6435217 C98.1531148,27.1137391 97.558082,27.4935652 96.9393934,27.7811739 C96.3225246,28.0696957 95.7220328,28.2130435 95.1479262,28.2130435 C94.6393279,28.2130435 94.1498361,28.119 93.6658033,27.9272609 C93.1863197,27.7373478 92.7668852,27.4616087 92.3993115,27.1082609 C92.2582869,26.9749565 92.1290902,26.8224783 92.013541,26.6608696 C91.9125492,26.7430435 91.8142869,26.817 91.7169344,26.8936957 C91.2128852,27.2753478 90.6733525,27.6003913 90.0910574,27.8624348 C89.516041,28.1272174 88.9319262,28.2586957 88.3541803,28.2586957 C87.6581557,28.2586957 87.0749508,28.0496087 86.6145738,27.636 C86.1450984,27.2214783 85.7475,26.6124783 85.409041,25.8226957 C85.1606557,26.0975217 84.8504016,26.3778261 84.4846475,26.6581304 C84.1134344,26.943913 83.710377,27.1977391 83.2736557,27.4287391 C82.8323852,27.6606522 82.3801967,27.846913 81.9061721,27.9957391 C81.4312377,28.1418261 80.9608525,28.2130435 80.480459,28.2130435 C79.980959,28.2130435 79.481459,28.119 79.0092541,27.9272609 C78.5306803,27.7373478 78.1094262,27.4616087 77.7373033,27.1082609 C77.4698115,26.8526087 77.2459918,26.5576957 77.0612951,26.2226087 C76.7756066,26.4061304 76.4853689,26.5814348 76.2024098,26.7448696 C75.8957951,26.9238261 75.5728033,27.0954783 75.2379836,27.2716957 C74.9058934,27.4406087 74.5665246,27.5921739 74.2435328,27.7227391 C73.9169016,27.8560435 73.5975492,27.9637826 73.2845656,28.0468696 C72.9734016,28.1281304 72.6868033,28.1710435 72.4275,28.1710435 C72.2746475,28.1710435 72.0599262,28.1418261 71.772418,28.0843043 C71.4803607,28.0249565 71.1646475,27.9026087 70.8216393,27.7227391 C70.4822705,27.5437826 70.1383525,27.2808261 69.7935246,26.9411739 C69.4559754,26.5933043 69.1575492,26.1376957 68.9073443,25.5734348 C68.5115656,25.9240435 68.1030492,26.2600435 67.6672377,26.5786957 C67.226877,26.8955217 66.7737787,27.174 66.3033934,27.405913 C65.8348279,27.6442174 65.3571639,27.8304783 64.8813197,27.9701739 C64.4045656,28.118087 63.9178033,28.1874783 63.4383197,28.1874783 C62.7513934,28.1874783 62.1627295,28.0496087 61.6541311,27.7747826 C61.1591803,27.5026957 60.7379262,27.1374783 60.4131148,26.6827826 C60.2584426,26.4691304 60.1237869,26.2390435 60.0027787,25.997087 C59.6224672,26.2390435 59.223959,26.4718696 58.7972459,26.7037826 C58.280459,26.9868261 57.730918,27.237 57.159541,27.4588696 C56.5836148,27.678913 55.9894918,27.8560435 55.3708033,27.9856957 C54.7502951,28.119 54.1316066,28.1874783 53.4974508,28.1874783 C52.5075492,28.1874783 51.6386557,28.0213043 50.8944098,27.6853043 C50.1510738,27.3538696 49.5405738,26.9055652 49.0383443,26.3449565 C48.6198197,25.8637826 48.2913689,25.3223478 48.0529918,24.7133478 C47.8191639,24.948913 47.5789672,25.1771739 47.3342213,25.3972174 C46.9429918,25.7487391 46.5180984,26.0911304 46.0640902,26.4253043 C45.6028033,26.7567391 45.1242295,27.0507391 44.6238197,27.3136957 C44.1206803,27.5711739 43.6038934,27.7811739 43.0589016,27.9418696 C42.5166393,28.1071304 41.9698279,28.1874783 41.408459,28.1874783 C40.4422131,28.1874783 39.5887869,28.0213043 38.8581885,27.6853043 C38.1248607,27.3538696 37.5079918,26.9055652 37.0185,26.3504348 C36.8692869,26.187913 36.7419098,26.0144348 36.6163525,25.8363913 C36.4935246,25.9194783 36.3670574,26.0053043 36.2324016,26.0929565 C35.6692131,26.460913 35.0614426,26.7978261 34.4090902,27.1082609 C33.7585574,27.4132174 33.0907377,27.6725217 32.4101803,27.8733913 C31.7314426,28.0843043 31.0845492,28.1874783 30.4758689,28.1874783 C29.925418,28.1874783 29.4659508,28.118087 29.092918,27.9701739 C28.7189754,27.8304783 28.416,27.6323478 28.1812623,27.3794348 C28.0093033,27.1858696 27.8746475,26.963087 27.7754754,26.7056087 C27.5088934,26.8827391 27.2377623,27.0461739 26.9629918,27.2105217 C26.4098115,27.530087 25.8393443,27.804913 25.2588689,28.0395652 C24.6856721,28.2742174 24.0970082,28.4577391 23.5138033,28.5892174 C22.9333279,28.7206957 22.3537623,28.7864348 21.7860246,28.7864348 C21.0490574,28.7864348 20.4039836,28.6704783 19.8389754,28.4367391 C19.2830656,28.1993478 18.798123,27.8816087 18.3987049,27.4798696 C17.9901885,27.0808696 17.649,26.6124783 17.382418,26.081087 C17.1021885,25.5460435 16.8847377,24.9836087 16.7209672,24.3855652 C16.5608361,23.7856957 16.4416475,23.1803478 16.3715902,22.5640435 C16.3051721,21.9468261 16.272418,21.3506087 16.272418,20.769913 C16.272418,20.0093478 16.3370164,19.2588261 16.4698525,18.5283913 C16.6017787,17.7915652 16.7600902,17.0711739 16.9511557,16.3608261 C17.1404016,15.6513913 17.3505738,14.9593043 17.5844016,14.2836522 C17.810041,13.608913 18.0238525,12.9478696 18.2140082,12.3114783 C18.4014344,11.6668696 18.5652049,11.045087 18.6971311,10.4470435 C18.8263279,9.8426087 18.8936557,9.26191304 18.8936557,8.70586957 C18.8936557,8.5616087 18.8854672,8.36165217 18.8618115,8.11878261 C18.8417951,7.87317391 18.7972131,7.63852174 18.7280656,7.413 C18.6580082,7.18565217 18.5497377,6.99117391 18.4014344,6.82865217 C18.2595,6.66247826 18.0547869,6.57756522 17.8018525,6.57756522 C17.382418,6.57756522 16.9511557,6.75926087 16.499877,7.12813043 C16.055877,7.49334783 15.5936803,8.00008696 15.1223852,8.6456087 C14.6556393,9.29386957 14.1834344,10.0562609 13.7121393,10.941913 C13.2408443,11.8284783 12.7668197,12.7844348 12.2955246,13.8043043 C11.8260492,14.8287391 11.3684016,15.9033913 10.9089344,17.0392174 C10.4494672,18.1668261 10.006377,19.3017391 9.58148361,20.4430435 C9.15113115,21.5806957 8.73988525,22.7083043 8.33864754,23.8103478 C7.93922951,24.9178696 7.56437705,25.9605652 7.21772951,26.9411739 C6.92112295,27.468913 6.58357377,27.8396087 6.19871311,28.0596522 C5.81294262,28.2815217 5.38531967,28.3901739 4.91220492,28.3901739 C4.63743443,28.3901739 4.37358197,28.3363043 4.11427869,28.2285652 C3.85679508,28.1226522 3.62569672,27.9637826 3.42917213,27.7528696 C3.22354918,27.5437826 3.07251639,27.2808261 2.9542377,26.9749565 C2.83686885,26.6672609 2.78227869,26.3148261 2.78227869,25.9240435 C2.78227869,25.514087 2.79956557,25.1415652 2.83868852,24.8073913 C2.88145082,24.4750435 2.94422951,24.1372174 3.03066393,23.7975652 C3.29815574,22.6772609 3.54108197,21.6473478 3.76581148,20.6986957 C3.98781148,19.7509565 4.19616393,18.8406522 4.38631967,17.9805652 C4.57829508,17.1232174 4.75207377,16.2896087 4.8967377,15.4815652 C5.05413934,14.6726087 5.18697541,13.8618261 5.31435246,13.0464783 C5.44354918,12.2265652 5.54181148,11.3883913 5.64007377,10.5264783 C5.73378689,9.66365217 5.87117213,8.7423913 5.87117213,7.76817391 L5.87117213,7.42852174 C5.87117213,7.28973913 5.87754098,7.161 5.84660656,7.03591304 C5.80657377,6.91721739 5.77563934,6.81130435 5.69466393,6.72365217 C5.61641803,6.636 5.4945,6.59126087 5.33982787,6.59126087 C5.12783607,6.59126087 4.8712623,6.6843913 4.57283607,6.87156522 C4.27259016,7.05965217 3.96233607,7.3143913 3.63843443,7.64217391 C3.31908197,7.96904348 2.99154098,8.35434783 2.65581148,8.79352174 C2.50568852,8.9943913 2.16722951,9.49656522 2.109,9.56686957 C1.88790984,9.82708696 1.55945902,9.99234783 1.19370492,9.99234783 C0.533163934,9.99234783 0,9.46369565 0,8.80995652 C0,8.73965217 0.0100081967,8.6666087 0.0200163934,8.59630435 C0.176508197,7.70517391 0.678737705,7.01126087 0.970795082,6.51091304 C1.41843443,5.7393913 1.89518852,5.11852174 2.39013934,4.64465217 C2.89418852,4.16986957 3.40187705,3.82565217 3.91411475,3.612 C4.43090164,3.39652174 4.93586066,3.29152174 5.43627049,3.29152174 C6.18142623,3.29152174 6.81285246,3.39286957 7.32054098,3.6056087 C7.82913934,3.81469565 8.24493443,4.10869565 8.56064754,4.48578261 C8.87272131,4.85921739 9.10472951,5.313 9.23756557,5.84073913 C9.37677049,6.37121739 9.44136885,6.95647826 9.44136885,7.60382609 C9.44136885,8.24934783 9.38768852,8.94417391 9.27031967,9.68921739 C9.15477049,10.4324348 8.99645902,11.2039565 8.79629508,12.0019565 C8.59795082,12.7972174 8.36867213,13.6134783 8.1157377,14.447087 C7.8682623,15.2806957 7.60531967,16.1024348 7.34692623,16.926 L7.6135082,17.0136522 C8.33864754,15.0168261 9.05741803,13.2774783 9.76527049,11.7956087 C10.4694836,10.3128261 11.1618689,9.0446087 11.8406066,7.99369565 C12.5184344,6.94095652 13.1789754,6.08178261 13.8158607,5.40886957 C14.4518361,4.73869565 15.0759836,4.21643478 15.6782951,3.83204348 C16.2860656,3.44947826 16.8692705,3.18652174 17.4360984,3.03769565 C17.998377,2.89434783 18.5379098,2.81765217 19.0647049,2.81765217 C19.6761148,2.81765217 20.2029098,2.95552174 20.6332623,3.22852174 C21.0627049,3.50243478 21.4211803,3.85578261 21.6986803,4.28582609 C21.9761803,4.71769565 22.1781639,5.19247826 22.3064508,5.70834783 C22.4347377,6.2306087 22.4984262,6.73734783 22.4984262,7.2386087 C22.4984262,7.82386957 22.4492951,8.4776087 22.3473934,9.198 C22.244582,9.91747826 22.1172049,10.6798696 21.9761803,11.4796957 C21.8260574,12.2786087 21.6622869,13.1094783 21.4821393,13.9668261 C21.3056311,14.8232609 21.1409508,15.6787826 20.9981066,16.5242609 C20.8488934,17.3706522 20.7278852,18.2033478 20.6232541,19.0159565 C20.5231721,19.8386087 20.4731311,20.6083043 20.4731311,21.3296087 C20.4731311,21.5633478 20.4813197,21.8281304 20.4967869,22.1157391 C20.5131639,22.4033478 20.5486475,22.6982609 20.601418,22.9977391 C20.6523689,23.2963043 20.7306148,23.5857391 20.828877,23.8687826 C20.9298689,24.1545652 21.0636148,24.4093043 21.2392131,24.633913 C21.4157213,24.8566957 21.6313525,25.0402174 21.8870164,25.1771739 C22.1472295,25.3159565 22.4547541,25.3807826 22.8150492,25.3807826 C23.3163689,25.3807826 23.854082,25.2648261 24.414541,25.0265217 C24.9840984,24.7936957 25.5336393,24.4978696 26.0768115,24.1426957 C26.6181639,23.7856957 27.1322213,23.3976522 27.6289918,22.9831304 C27.6908607,22.9237826 27.755459,22.869 27.8182377,22.8151304 C27.961082,22.0810435 28.1303115,21.3277826 28.3286557,20.5434783 C28.5479262,19.6696957 28.7853934,18.795 29.0292295,17.9212174 C29.2785246,17.052 29.4932459,16.2521739 29.6834016,15.519 C29.7580082,15.2624348 29.9072213,15.0469565 30.125582,14.8616087 C30.3484918,14.6826522 30.5977869,14.5347391 30.8789262,14.4242609 C31.1573361,14.3083043 31.4493934,14.2288696 31.7469098,14.175 C32.0517049,14.1202174 32.3201066,14.0891739 32.5639426,14.0891739 C33.0006639,14.0891739 33.3036393,14.1695217 33.4601311,14.3183478 C33.622082,14.4708261 33.699418,14.6744348 33.699418,14.9291739 C33.699418,15.1446522 33.6484672,15.455087 33.538377,15.8632174 C33.4364754,16.2695217 33.3036393,16.7306087 33.1462377,17.2428261 C32.9870164,17.7550435 32.8186967,18.3056087 32.6403689,18.9018261 C32.4611311,19.4925652 32.2928115,20.0869565 32.1326803,20.6786087 C31.9798279,21.2693478 31.8433525,21.8454783 31.7378115,22.407913 C31.6331803,22.9712609 31.5831393,23.478 31.5831393,23.9263043 C31.5831393,24.3709565 31.6331803,24.717 31.7378115,24.9817826 C31.8433525,25.2365217 32.0617131,25.3698261 32.3856148,25.3698261 C32.7677459,25.3698261 33.1871803,25.2438261 33.6484672,25.0000435 C34.1106639,24.7544348 34.5846885,24.4586087 35.0587131,24.1134783 C35.2670656,23.9555217 35.4781475,23.8012174 35.6865,23.6414348 C35.5745902,23.1483913 35.5172705,22.6425652 35.5172705,22.1221304 C35.5172705,21.5551304 35.5745902,20.9634783 35.7083361,20.3435217 C35.8320738,19.7290435 36.0176803,19.1236957 36.2651557,18.5338696 C36.5144508,17.9403913 36.8165164,17.3761304 37.1831803,16.8374348 C37.5462049,16.3014783 37.9665492,15.8285217 38.4442131,15.4240435 C38.9282459,15.015 39.4595902,14.6917826 40.0537131,14.4507391 C40.6396475,14.2106087 41.2910902,14.0891739 41.9916639,14.0891739 C42.5939754,14.0891739 43.1489754,14.1786522 43.662123,14.3484783 C44.172541,14.5201304 44.6083525,14.7593478 44.9750164,15.0633913 C45.3316721,15.3674348 45.6200902,15.7235217 45.8275328,16.1398696 C46.0286066,16.5571304 46.131418,17.0054348 46.131418,17.4829565 C46.131418,17.8162174 46.0859262,18.143087 45.9940328,18.4690435 C45.8966803,18.7922609 45.7574754,19.0816957 45.5727787,19.341913 C45.3862623,19.6012174 45.1642623,19.8103043 44.9004098,19.9646087 C44.6392869,20.1243913 44.3426803,20.1983478 44.0160492,20.1983478 C43.5192787,20.1983478 43.1935574,20.0778261 43.0425246,19.8313043 C42.8933115,19.5866087 42.8132459,19.2469565 42.8132459,18.8205652 C42.8132459,18.6461739 42.8223443,18.459913 42.8432705,18.2608696 C42.8541885,18.0645652 42.8605574,17.8892609 42.8605574,17.7331304 C42.8605574,17.4975652 42.8369016,17.303087 42.7814016,17.1478696 C42.7322705,16.9917391 42.6176311,16.9104783 42.4347541,16.9104783 C42.0044016,16.9104783 41.6340984,17.0072609 41.3283934,17.1962609 C41.0263279,17.3898261 40.7642951,17.639087 40.5486639,17.9458696 C40.3330328,18.2572174 40.1592541,18.606 40.0336967,18.9876522 C39.9063197,19.3738696 39.8080574,19.7591739 39.7316311,20.1408261 C39.6588443,20.5224783 39.6133525,20.8886087 39.5906066,21.2364783 C39.5705902,21.5806957 39.560582,21.8728696 39.560582,22.1047826 C39.560582,22.4608696 39.5906066,22.826087 39.6633934,23.2086522 C39.7316311,23.5939565 39.8580984,23.9381739 40.0537131,24.2623043 C40.2393197,24.5754783 40.4968033,24.8402609 40.8207049,25.053913 C41.1473361,25.262087 41.5685902,25.3698261 42.0935656,25.3698261 C42.5939754,25.3698261 43.1507951,25.221 43.7649344,24.9333913 C44.3745246,24.6448696 44.9886639,24.2805652 45.6028033,23.8413913 C46.2187623,23.3976522 46.8056066,22.9164783 47.3642459,22.386 C47.4343033,22.3211739 47.4925328,22.26 47.5589508,22.197913 C47.5589508,22.154087 47.552582,22.1056957 47.552582,22.0627826 C47.552582,21.5158696 47.6099016,20.9351739 47.7290902,20.3261739 C47.846459,19.7144348 48.0202377,19.1118261 48.2577049,18.5283913 C48.4933525,17.9394783 48.795418,17.3770435 49.1520738,16.842913 C49.5087295,16.3142609 49.9254344,15.8422174 50.4085574,15.435913 C50.882582,15.0305217 51.4202951,14.7054783 52.0207869,14.4671739 C52.6149098,14.2288696 53.2781803,14.1074348 54.0033197,14.1074348 C54.5938033,14.1074348 55.1369754,14.1932609 55.6473934,14.3722174 C56.1559918,14.5484348 56.5954426,14.7940435 56.9666557,15.1117826 C57.342418,15.4322609 57.6290164,15.8148261 57.8446475,16.2676957 C58.0548197,16.716 58.1567213,17.219087 58.1567213,17.7760435 C58.1567213,18.3841304 58.0020492,18.9885652 57.6735984,19.5975652 C57.3506066,20.2047391 56.9129754,20.7790435 56.3425082,21.315913 C55.7747705,21.8509565 55.0960328,22.3348696 54.3126639,22.7557826 C53.5265656,23.1748696 52.674959,23.5017391 51.7569344,23.7363913 C51.9170656,24.003 52.0708279,24.2230435 52.2255,24.4001739 C52.3747131,24.5736522 52.5375738,24.7133478 52.6904262,24.8073913 C52.8532869,24.9078261 53.0152377,24.9744783 53.1871967,25.0155652 C53.3600656,25.0548261 53.5502213,25.0721739 53.7512951,25.0721739 C54.3818115,25.0721739 55.0478115,24.9543913 55.7520246,24.7224783 C56.4553279,24.486 57.1322459,24.192 57.7991557,23.8413913 C58.3769016,23.5364348 58.9218934,23.2031739 59.4423197,22.848 C59.4741639,22.3814348 59.5515,21.9121304 59.6852459,21.4391739 C59.8599344,20.7991304 60.1083197,20.1764348 60.4431393,19.5756522 C60.7770492,18.9730435 61.1810164,18.4078696 61.6541311,17.871 C62.1263361,17.3396087 62.6604098,16.8657391 63.2663607,16.4466522 C63.8613934,16.0321304 64.5210246,15.687913 65.2252377,15.4167391 C65.9276311,15.141 66.6800656,14.9702609 67.4843607,14.8999565 C67.5134754,13.6472609 67.6308443,12.410087 67.8473852,11.1856957 C68.0584672,9.9603913 68.3323279,8.79626087 68.6735164,7.69147826 C69.0283525,6.5876087 69.4423279,5.565 69.9072541,4.6263913 C70.3721803,3.68504348 70.8871475,2.8706087 71.4457869,2.18947826 C72.0044262,1.50286957 72.6012787,0.967826087 73.2317951,0.578869565 C73.859582,0.192652174 74.5128443,0 75.191582,0 C75.6874426,0 76.1041475,0.121434783 76.4571639,0.357913043 C76.8019918,0.598956522 77.0867705,0.917608696 77.2978525,1.31295652 C77.5143934,1.71286957 77.6727049,2.16847826 77.766418,2.69530435 C77.8628607,3.21847826 77.9074426,3.75991304 77.9074426,4.31686957 C77.9074426,4.65926087 77.8919754,5.00986957 77.8628607,5.37326087 C77.7254754,6.75013043 77.4698115,8.05669565 77.1040574,9.28473913 C76.7292049,10.5136957 76.3024918,11.7088696 75.8011721,12.8748261 C75.3116803,14.0407826 74.7766967,15.1903043 74.1934918,16.338913 C73.6148361,17.4829565 73.0480082,18.6708261 72.5048361,19.907087 C72.4475164,20.0422174 72.3992951,20.2093043 72.3501639,20.4037826 C72.2964836,20.601913 72.244623,20.8128261 72.1936721,21.0447391 C72.1490902,21.273 72.1063279,21.5085652 72.0772131,21.7486957 C72.0471885,21.9888261 72.0308115,22.2225652 72.0308115,22.449913 C72.0308115,22.7293043 72.0471885,23.0013913 72.083582,23.2533913 C72.1245246,23.5081304 72.1827541,23.7363913 72.266459,23.9345217 C72.3519836,24.1372174 72.4602541,24.2924348 72.6058279,24.4138696 C72.7504918,24.528 72.927,24.5873478 73.138082,24.5873478 C73.3382459,24.5873478 73.5547869,24.5508261 73.7904344,24.4796087 C74.0333607,24.4093043 74.2826557,24.3043043 74.5465082,24.1746522 C74.8067213,24.0523043 75.0733033,23.9034783 75.3389754,23.7446087 C75.6055574,23.5811739 75.8639508,23.4195652 76.1232541,23.2533913 C76.2806557,23.1483913 76.4371475,23.0333478 76.6000082,22.9192174 C76.656418,22.5494348 76.7292049,22.1778261 76.8411148,21.7998261 C77.0612951,21.0255652 77.3579016,20.2723043 77.7482213,19.53 C78.1412705,18.794087 78.5752623,18.0956087 79.1138852,17.4382174 C79.6452295,16.7835652 80.1838525,16.211087 80.8216475,15.7180435 C81.4530738,15.2304783 82.039918,14.8442609 82.7404918,14.5584783 C83.3746475,14.2936957 83.6903607,14.153087 84.5237705,14.1275217 L84.5237705,14.1256957 C84.5237705,14.1256957 88.5898279,13.7486087 88.9364754,15.9490435 L89.0911475,15.9499565 C89.1357295,16.1170435 89.1548361,16.3261304 89.1548361,16.5872609 C89.1548361,17.0611304 89.1075246,17.5797391 89.0047131,18.1485652 C88.8928033,18.7256087 88.7790738,19.3117826 88.6507869,19.9125652 C88.5225,20.5142609 88.4105902,21.1214348 88.3050492,21.7185652 C88.1995082,22.3193478 88.1485574,22.890913 88.1485574,23.4323478 C88.1485574,23.8888696 88.1913197,24.2476957 88.2813934,24.5088261 C88.3696475,24.7681304 88.5625328,24.8996087 88.8564098,24.8996087 C89.0793197,24.8996087 89.3095082,24.8448261 89.5551639,24.7425652 C89.7926311,24.6412174 90.0419262,24.5088261 90.2848525,24.338087 C90.5377869,24.1728261 90.7807131,23.9838261 91.0263689,23.772913 C91.0791393,23.7318261 91.1300902,23.6797826 91.1828607,23.6350435 C91.1992377,22.9484348 91.2392705,22.3065652 91.3147869,21.7103478 C91.4021311,21 91.5322377,20.3152174 91.702377,19.6724348 C91.8716066,19.0278261 92.0790492,18.4023913 92.3310738,17.7997826 C92.590377,17.1962609 92.8787951,16.5872609 93.2063361,15.9727826 C93.445623,15.5326957 93.7922705,15.1966957 94.2471885,14.9629565 C94.7002869,14.7365217 95.1397377,14.6196522 95.5737295,14.6196522 C95.9449426,14.6196522 96.2570164,14.7054783 96.5208689,14.8762174 C96.7829016,15.0506087 96.9157377,15.3181304 96.9157377,15.6787826 C96.9157377,15.7883478 96.9011803,15.9033913 96.8775246,16.0321304 C96.852959,16.1572174 96.8020082,16.296913 96.7446885,16.4402609 C96.5518033,16.8922174 96.3625574,17.4217826 96.1769508,18.0344348 C95.9931639,18.6461739 95.832123,19.2734348 95.6892787,19.9125652 C95.5482541,20.5535217 95.4381639,21.1835217 95.3462705,21.7998261 C95.2671148,22.4170435 95.2261721,22.9584783 95.2261721,23.4323478 C95.2261721,23.6715652 95.2425492,23.9116957 95.2834918,24.1426957 C95.3180656,24.3727826 95.3844836,24.5754783 95.4809262,24.7544348 C95.5737295,24.9388696 95.7038361,25.0813043 95.8521393,25.1972609 C96.0195492,25.3077391 96.2115246,25.3698261 96.4580902,25.3698261 C96.8511393,25.3698261 97.2032459,25.2063913 97.5144098,24.8996087 C97.830123,24.5809565 98.107623,24.2075217 98.3359918,23.7646957 C98.5670902,23.3246087 98.7563361,22.869 98.8946311,22.3996957 C99.0374754,21.9340435 99.133918,21.5414348 99.1748607,21.2282609 L100.281221,16.9104783 C100.365836,16.5772174 100.520508,16.2804783 100.72977,16.0211739 C100.948131,15.7646087 101.197426,15.5491304 101.480385,15.371087 C101.754246,15.1903043 102.047213,15.0633913 102.352918,14.973 C102.653164,14.8844348 102.945221,14.8424348 103.217262,14.8424348 C103.548443,14.8424348 103.819574,14.9054348 104.046123,15.0396522 C104.263574,15.1720435 104.370934,15.3802174 104.370934,15.6632609 C104.370934,15.749087 104.358197,15.854087 104.324533,15.9727826 C104.263574,16.2247826 104.184418,16.5735652 104.088885,17.0136522 C103.993352,17.4528261 103.892361,17.954087 103.785,18.5137826 C103.67309,19.068913 103.556631,19.6587391 103.439262,20.2786957 C103.324623,20.9023043 103.217262,21.5195217 103.113541,22.1367391 C102.846959,23.5857391 102.580377,25.1415652 102.302877,26.8069565 C102.6195,26.6389565 102.967057,26.4335217 103.330992,26.187913 C103.696746,25.9432174 104.111631,25.6163478 104.562,25.2045652 C105.021467,24.7936957 105.523697,24.2787391 106.076877,23.6560435 C106.635516,23.0351739 107.266033,22.26 107.961148,21.3296087 C109.159402,19.7911304 110.223,20.9041304 110.223,20.9041304 Z M29.6561975,9.58001739 C29.6561975,8.42958261 30.6642959,7.4991913 31.9025828,7.4991913 C33.1317713,7.4991913 34.1453287,8.42958261 34.1453287,9.58001739 C34.1453287,10.7295391 33.1317713,11.6581043 31.9025828,11.6581043 C30.6642959,11.6581043 29.6561975,10.7295391 29.6561975,9.58001739 Z" id="Fill-1"></path>
                        <path d="M45.7099508,34 C45.8564344,34 45.981082,34.0520435 46.0848033,34.1561304 C46.1885246,34.2602174 46.2403852,34.3853043 46.2403852,34.5323043 C46.2403852,34.6793043 46.1885246,34.8043913 46.0848033,34.9084783 C45.981082,35.0125652 45.8564344,35.0646087 45.7099508,35.0646087 L42.2707705,35.0646087 C42.1251967,35.0646087 41.9996393,35.0125652 41.895918,34.9084783 C41.7921967,34.8043913 41.7403361,34.6793043 41.7403361,34.5323043 C41.7403361,34.3853043 41.7921967,34.2602174 41.895918,34.1561304 C41.9996393,34.0520435 42.1251967,34 42.2707705,34 L45.7099508,34 Z M45.3987869,41.0203913 L45.7281475,41.0203913 C45.7891066,41.0203913 45.8336885,40.9738261 45.8609836,40.8788696 C45.8882787,40.783913 45.9082951,40.5866957 45.920123,40.2872174 C45.920123,40.1703478 45.9719836,40.0817826 46.0757049,40.0206087 C46.1366639,39.9904783 46.1948934,39.9749565 46.2494836,39.9749565 C46.2977049,39.9749565 46.3468361,39.9868261 46.3959672,40.0114783 C46.5479098,40.0790435 46.6698279,40.1803913 46.7617213,40.3146087 C46.8345082,40.4186957 46.8709016,40.5346522 46.8709016,40.6633913 C46.8709016,40.6880435 46.8681721,40.7145217 46.8627131,40.7455652 C46.8008443,41.2413478 46.6934836,41.5855652 46.5379016,41.7782174 C46.3823197,41.9708696 46.1484918,42.0667391 45.8382377,42.0667391 L45.1977131,42.0667391 C44.7773689,42.0667391 44.4953197,41.9699565 44.3515656,41.7736522 C44.2087213,41.5773478 44.1368443,41.2103043 44.1368443,40.6725217 L44.1368443,37.800087 C44.1368443,37.738913 44.1059098,37.7078696 44.0449508,37.7078696 L43.5973115,37.7078696 C43.5363525,37.7078696 43.5026885,37.738913 43.4963197,37.800087 C43.4726639,38.2283043 43.4399098,38.598087 43.4007869,38.9103478 C43.3607541,39.2226087 43.2934262,39.5385217 43.1997131,39.859913 C43.1050902,40.1813043 42.9831721,40.4597826 42.8330492,40.6953478 C42.6838361,40.930913 42.4891311,41.1536957 42.2480246,41.3646087 C42.0078279,41.5764348 41.7221393,41.7581304 41.3927787,41.9115217 C41.3199918,41.9416522 41.2472049,41.9571739 41.1735082,41.9571739 C41.1061803,41.9571739 41.0424918,41.9453043 40.9815328,41.9206522 C40.841418,41.8713478 40.724959,41.7827826 40.6339754,41.6540435 C40.5793852,41.581 40.5520902,41.5043043 40.5520902,41.4248696 C40.5520902,41.3883478 40.5575492,41.3545652 40.5702869,41.3235217 C40.5939426,41.2011739 40.6649098,41.1153478 40.780459,41.0669565 C41.0488607,40.9382174 41.2790492,40.7912174 41.4710246,40.6259565 C41.663,40.4616087 41.8167623,40.2881304 41.9332213,40.1073478 C42.0487705,39.9274783 42.1415738,39.7083478 42.2116311,39.4517826 C42.2816885,39.1943043 42.3308197,38.9441304 42.3581148,38.6985217 C42.3854098,38.4538261 42.4081557,38.1543478 42.4263525,37.800087 C42.4263525,37.7754348 42.4172541,37.7535217 42.3990574,37.7352609 C42.3808607,37.717 42.3590246,37.7078696 42.3353689,37.7078696 L41.9050164,37.7078696 C41.7594426,37.7078696 41.6329754,37.6558261 41.5256148,37.5517391 C41.4191639,37.4476522 41.3654836,37.3207391 41.3654836,37.171 C41.3654836,37.0212609 41.4191639,36.8943478 41.5256148,36.7902609 C41.6329754,36.6861739 41.7594426,36.6341304 41.9050164,36.6341304 L46.1848852,36.6341304 C46.3322787,36.6341304 46.4569262,36.6861739 46.5606475,36.7902609 C46.663459,36.8943478 46.7153197,37.0212609 46.7153197,37.171 C46.7153197,37.3207391 46.663459,37.4476522 46.5606475,37.5517391 C46.4569262,37.6558261 46.3322787,37.7078696 46.1848852,37.7078696 L45.3350984,37.7078696 C45.2741393,37.7078696 45.2432049,37.738913 45.2432049,37.800087 L45.2432049,40.6633913 C45.2432049,40.8222609 45.2523033,40.9217826 45.2714098,40.9619565 C45.2896066,41.0012174 45.331459,41.0203913 45.3987869,41.0203913 Z M40.9178443,39.2865217 C40.9542377,39.2801304 40.9906311,39.2773913 41.0279344,39.2773913 C41.1125492,39.2773913 41.1953443,39.3020435 41.2745,39.3504348 C41.3782213,39.4298696 41.4391803,39.5339565 41.457377,39.6626957 C41.4637459,39.6873478 41.4664754,39.712 41.4664754,39.7357391 C41.4664754,39.8462174 41.4328115,39.9503043 41.3654836,40.048 C41.2863279,40.1639565 41.179877,40.2406522 41.0461311,40.2771739 C40.9660656,40.2963478 40.1708689,40.5045217 38.6587213,40.9016957 C38.6095902,40.9135652 38.5640984,40.9199565 38.5213361,40.9199565 C38.4239836,40.9199565 38.3357295,40.8953043 38.2565738,40.846913 C38.1282869,40.7674783 38.0491311,40.6542609 38.0181967,40.5072609 C38.0063689,40.4643478 38,40.4241739 38,40.3876522 C38,40.2835652 38.0309344,40.1858696 38.0918934,40.0936522 C38.177418,39.9722174 38.2929672,39.8918696 38.4394508,39.8553478 C38.6341557,39.8188261 38.8534262,39.7731739 39.0972623,39.7174783 C39.1582213,39.7056087 39.1891557,39.669087 39.1891557,39.607913 L39.1891557,37.8457391 C39.1891557,37.7845652 39.1582213,37.7535217 39.0972623,37.7535217 L38.6860164,37.7535217 C38.5459016,37.7535217 38.4258033,37.7033043 38.3248115,37.6019565 C38.2238197,37.5015217 38.1737787,37.381 38.1737787,37.2394783 C38.1737787,37.0988696 38.2238197,36.9783478 38.3248115,36.877 C38.4258033,36.7765652 38.5459016,36.7254348 38.6860164,36.7254348 L39.0972623,36.7254348 C39.1582213,36.7254348 39.1891557,36.6953043 39.1891557,36.6341304 L39.1891557,35.1568261 C39.1891557,35.0956522 39.1582213,35.0646087 39.0972623,35.0646087 L38.5950328,35.0646087 C38.4540082,35.0646087 38.3339098,35.0143913 38.2338279,34.9130435 C38.1328361,34.8126087 38.0827951,34.6902609 38.0827951,34.546 C38.0827951,34.4026522 38.1328361,34.2803043 38.2338279,34.1789565 C38.3339098,34.0776087 38.4540082,34.0273913 38.5950328,34.0273913 L40.7622623,34.0273913 C40.902377,34.0273913 41.0224754,34.0776087 41.1234672,34.1789565 C41.2235492,34.2803043 41.2745,34.4026522 41.2745,34.546 C41.2745,34.6902609 41.2235492,34.8126087 41.1234672,34.9130435 C41.0224754,35.0143913 40.902377,35.0646087 40.7622623,35.0646087 L40.3601148,35.0646087 C40.2991557,35.0646087 40.2682213,35.0956522 40.2682213,35.1568261 L40.2682213,36.6341304 C40.2682213,36.6953043 40.2991557,36.7254348 40.3601148,36.7254348 L40.6794672,36.7254348 C40.819582,36.7254348 40.9405902,36.7765652 41.041582,36.877 C41.1416639,36.9783478 41.1917049,37.0988696 41.1917049,37.2394783 C41.1917049,37.381 41.1416639,37.5015217 41.041582,37.6019565 C40.9405902,37.7033043 40.819582,37.7535217 40.6794672,37.7535217 L40.3601148,37.7535217 C40.2991557,37.7535217 40.2682213,37.7845652 40.2682213,37.8457391 L40.2682213,39.3504348 C40.2682213,39.375087 40.2773197,39.3951739 40.2955164,39.4106957 C40.3137131,39.4253043 40.3319098,39.4298696 40.3501066,39.4234783 L40.9178443,39.2865217 Z" id="Fill-6"></path>
                        <path d="M57.3623934,35.982913 C57.4233525,35.982913 57.4542869,35.9518696 57.4542869,35.8906957 L57.4542869,35.6523913 C57.4542869,35.5912174 57.4233525,35.561087 57.3623934,35.561087 L57.1249262,35.561087 C57.0639672,35.561087 57.0330328,35.5912174 57.0330328,35.6523913 L57.0330328,35.8906957 C57.0330328,35.9518696 57.0639672,35.982913 57.1249262,35.982913 L57.3623934,35.982913 Z M57.3623934,34.9000435 C57.4233525,34.9000435 57.4542869,34.869 57.4542869,34.8078261 L57.4542869,34.5695217 C57.4542869,34.5083478 57.4233525,34.4782174 57.3623934,34.4782174 L57.1249262,34.4782174 C57.0639672,34.4782174 57.0330328,34.5083478 57.0330328,34.5695217 L57.0330328,34.8078261 C57.0330328,34.869 57.0639672,34.9000435 57.1249262,34.9000435 L57.3623934,34.9000435 Z M56.4389098,35.6523913 C56.4389098,35.5912174 56.4079754,35.561087 56.3470164,35.561087 L56.1277459,35.561087 C56.0667869,35.561087 56.0358525,35.5912174 56.0358525,35.6523913 L56.0358525,35.8906957 C56.0358525,35.9518696 56.0667869,35.982913 56.1277459,35.982913 L56.3470164,35.982913 C56.4079754,35.982913 56.4389098,35.9518696 56.4389098,35.8906957 L56.4389098,35.6523913 Z M56.0358525,34.8078261 C56.0358525,34.869 56.0667869,34.9000435 56.1277459,34.9000435 L56.3470164,34.9000435 C56.4079754,34.9000435 56.4389098,34.869 56.4389098,34.8078261 L56.4389098,34.5695217 C56.4389098,34.5083478 56.4079754,34.4782174 56.3470164,34.4782174 L56.1277459,34.4782174 C56.0667869,34.4782174 56.0358525,34.5083478 56.0358525,34.5695217 L56.0358525,34.8078261 Z M56.8774508,40.0030435 C56.8838197,39.9783913 56.8810902,39.9573913 56.8692623,39.9391304 C56.8565246,39.9199565 56.8383279,39.9108261 56.8137623,39.9108261 L55.5882131,39.9108261 C55.5700164,39.9108261 55.5563689,39.9199565 55.5472705,39.9391304 C55.5381721,39.9573913 55.5363525,39.9756522 55.5427213,39.993913 C55.6946639,40.2623478 55.8083934,40.5225652 55.8811803,40.7736522 C55.899377,40.8348261 55.9357705,40.8658696 55.9903607,40.8658696 L56.4389098,40.8658696 C56.4998689,40.8658696 56.5426311,40.8375652 56.5662869,40.7827826 C56.6945738,40.4951739 56.7982951,40.2349565 56.8774508,40.0030435 Z M55.3416475,38.7083478 C55.2797787,38.7083478 55.2497541,38.7393913 55.2497541,38.8005652 L55.2497541,39.1676087 C55.2497541,39.2287826 55.2797787,39.258913 55.3416475,39.258913 L57.170418,39.258913 C57.231377,39.258913 57.2623115,39.2287826 57.2623115,39.1676087 L57.2623115,38.8005652 C57.2623115,38.7393913 57.231377,38.7083478 57.170418,38.7083478 L55.3416475,38.7083478 Z M55.1405738,35.561087 C55.0787049,35.561087 55.0486803,35.5912174 55.0486803,35.6523913 L55.0486803,35.8906957 C55.0486803,35.9518696 55.0787049,35.982913 55.1405738,35.982913 L55.3416475,35.982913 C55.4026066,35.982913 55.4326311,35.9518696 55.4326311,35.8906957 L55.4326311,35.6523913 C55.4326311,35.5912174 55.4026066,35.561087 55.3416475,35.561087 L55.1405738,35.561087 Z M55.1405738,34.4782174 C55.0787049,34.4782174 55.0486803,34.5083478 55.0486803,34.5695217 L55.0486803,34.8078261 C55.0486803,34.869 55.0787049,34.9000435 55.1405738,34.9000435 L55.3416475,34.9000435 C55.4026066,34.9000435 55.4326311,34.869 55.4326311,34.8078261 L55.4326311,34.5695217 C55.4326311,34.5083478 55.4026066,34.4782174 55.3416475,34.4782174 L55.1405738,34.4782174 Z M57.5270738,33.7797391 C57.7463443,33.7797391 57.9337705,33.8582609 58.0893525,34.0143913 C58.2449344,34.1705217 58.3231803,34.3586087 58.3231803,34.5786522 L58.3231803,35.9007391 C58.3231803,36.1207826 58.2449344,36.3088696 58.0893525,36.465 C57.9337705,36.6211304 57.7463443,36.6987391 57.5270738,36.6987391 L55.0213852,36.6987391 C54.8021148,36.6987391 54.6137787,36.6211304 54.4591066,36.465 C54.3035246,36.3088696 54.2252787,36.1207826 54.2252787,35.9007391 L54.2252787,34.5786522 C54.2252787,34.3586087 54.3035246,34.1705217 54.4591066,34.0143913 C54.6137787,33.8582609 54.8021148,33.7797391 55.0213852,33.7797391 L55.1860656,33.7797391 C55.2406557,33.7797391 55.2679508,33.7532609 55.2679508,33.6975652 L55.2679508,33.3853043 C55.2679508,33.2821304 55.3061639,33.1917391 55.3825902,33.1150435 C55.4590164,33.0383478 55.55,33 55.6564508,33 C55.7638115,33 55.8547951,33.0383478 55.9312213,33.1150435 C56.0076475,33.1917391 56.0458607,33.2821304 56.0458607,33.3853043 L56.0458607,33.6975652 C56.0458607,33.7532609 56.0695164,33.7797391 56.1186475,33.7797391 L56.3652131,33.7797391 C56.4207131,33.7797391 56.4480082,33.7532609 56.4480082,33.6975652 L56.4480082,33.3953478 C56.4480082,33.2848696 56.4862213,33.1917391 56.5626475,33.1150435 C56.6381639,33.0383478 56.731877,33 56.8410574,33 C56.9511475,33 57.0439508,33.0383478 57.120377,33.1150435 C57.1958934,33.1917391 57.2341066,33.2848696 57.2341066,33.3953478 L57.2341066,33.6975652 C57.2341066,33.7532609 57.2623115,33.7797391 57.3169016,33.7797391 L57.5270738,33.7797391 Z M57.4078852,40.7827826 C57.4015164,40.8010435 57.4033361,40.8193043 57.4124344,40.8375652 C57.4215328,40.8558261 57.4360902,40.8658696 57.4542869,40.8658696 L58.2039918,40.8658696 C58.3131721,40.8658696 58.4059754,40.9042174 58.4824016,40.98 C58.5588279,41.0566957 58.597041,41.1498261 58.597041,41.2603043 C58.597041,41.3698696 58.5588279,41.463 58.4824016,41.5396957 C58.4059754,41.6163913 58.3131721,41.6547391 58.2039918,41.6547391 L54.2252787,41.6547391 C54.1160984,41.6547391 54.0232951,41.6163913 53.9468689,41.5396957 C53.8704426,41.463 53.8322295,41.3698696 53.8322295,41.2603043 C53.8322295,41.1498261 53.8704426,41.0566957 53.9468689,40.98 C54.0232951,40.9042174 54.1160984,40.8658696 54.2252787,40.8658696 L54.9385902,40.8658696 C54.9567869,40.8658696 54.9722541,40.8558261 54.9849918,40.8375652 C54.9968197,40.8193043 54.9995492,40.8010435 54.9931803,40.7827826 C54.9631557,40.6914783 54.9294918,40.6056522 54.8930984,40.5262174 C54.8685328,40.4650435 54.8567049,40.4038696 54.8567049,40.3417826 C54.8567049,40.287 54.8658033,40.2294783 54.884,40.1673913 C54.9331311,40.0523478 55.0150164,39.972 55.1305656,39.929087 C55.1305656,39.9172174 55.1278361,39.9108261 55.122377,39.9108261 L55.0941721,39.9108261 C54.8930984,39.9108261 54.7193197,39.8396087 54.5728361,39.6953478 C54.4263525,39.552 54.3535656,39.3785217 54.3535656,39.1767391 L54.3535656,38.8553478 C54.3535656,38.6353043 54.4309016,38.4472174 54.5864836,38.291087 C54.7420656,38.1349565 54.9294918,38.0564348 55.1487623,38.0564348 L57.3996967,38.0564348 C57.6189672,38.0564348 57.8063934,38.1349565 57.9619754,38.291087 C58.1175574,38.4472174 58.1948934,38.6353043 58.1948934,38.8553478 L58.1948934,39.1128261 C58.1948934,39.3328696 58.1175574,39.5209565 57.9619754,39.677087 C57.8063934,39.8332174 57.6189672,39.9108261 57.3996967,39.9108261 L57.3623934,39.9108261 C57.3560246,39.9108261 57.3532951,39.9144783 57.3532951,39.9199565 C57.3532951,39.9263478 57.3560246,39.929087 57.3623934,39.929087 C57.4843115,39.9656087 57.5671066,40.0423043 57.608959,40.1591739 C57.6280656,40.2075652 57.6371639,40.2541304 57.6371639,40.2961304 C57.6371639,40.3636957 57.6189672,40.4285217 57.5816639,40.4896957 C57.5025082,40.6303043 57.4442787,40.728 57.4078852,40.7827826 Z M52.2500246,35.8633043 C52.2500246,35.9253913 52.280959,35.9555217 52.3410082,35.9555217 L52.5611885,35.9555217 C52.6221475,35.9555217 52.6521721,35.9253913 52.6521721,35.8633043 L52.6521721,35.1940435 C52.6521721,35.1328696 52.6221475,35.1018261 52.5611885,35.1018261 L52.3410082,35.1018261 C52.280959,35.1018261 52.2500246,35.1328696 52.2500246,35.1940435 L52.2500246,35.8633043 Z M51.482123,39.3328696 C51.482123,39.3940435 51.5121475,39.425087 51.5731066,39.425087 L52.4056066,39.425087 C52.4665656,39.425087 52.4965902,39.3940435 52.4965902,39.3328696 L52.4965902,39.0945652 C52.4965902,39.0333913 52.4665656,39.0023478 52.4056066,39.0023478 L51.5731066,39.0023478 C51.5121475,39.0023478 51.482123,39.0333913 51.482123,39.0945652 L51.482123,39.3328696 Z M52.4056066,38.2682609 C52.4665656,38.2682609 52.4965902,38.2372174 52.4965902,38.1760435 L52.4965902,37.9468696 C52.4965902,37.8856957 52.4665656,37.8555652 52.4056066,37.8555652 L51.5731066,37.8555652 C51.5121475,37.8555652 51.482123,37.8856957 51.482123,37.9468696 L51.482123,38.1760435 C51.482123,38.2372174 51.5121475,38.2682609 51.5731066,38.2682609 L52.4056066,38.2682609 Z M51.4357213,34.1011304 C51.3747623,34.1011304 51.3447377,34.1321739 51.3447377,34.1933478 L51.3447377,35.8633043 C51.3447377,35.9253913 51.3747623,35.9555217 51.4357213,35.9555217 L51.5549098,35.9555217 C51.6158689,35.9555217 51.6468033,35.9253913 51.6468033,35.8633043 L51.6468033,35.267087 C51.6468033,35.0470435 51.7241393,34.8589565 51.8797213,34.7028261 C52.0353033,34.5466957 52.2227295,34.4681739 52.442,34.4681739 L52.5611885,34.4681739 C52.6221475,34.4681739 52.6521721,34.4380435 52.6521721,34.3768696 L52.6521721,34.1933478 C52.6521721,34.1321739 52.6221475,34.1011304 52.5611885,34.1011304 L51.4357213,34.1011304 Z M53.1280164,37.1023043 C53.1889754,37.1023043 53.2199098,37.0721739 53.2199098,37.011 L53.2199098,36.8092174 C53.2199098,36.7480435 53.1889754,36.717 53.1280164,36.717 L50.8970984,36.717 C50.8361393,36.717 50.8052049,36.7480435 50.8052049,36.8092174 L50.8052049,37.011 C50.8052049,37.0721739 50.8361393,37.1023043 50.8970984,37.1023043 L53.1280164,37.1023043 Z M54.0333033,37.4793913 C54.0333033,37.4547391 54.0214754,37.4419565 53.9969098,37.4419565 L53.5210656,37.4419565 C53.4601066,37.4419565 53.430082,37.473 53.430082,37.5341739 L53.430082,40.8658696 C53.430082,41.0795217 53.4082459,41.2429565 53.3654836,41.3561739 C53.3236311,41.4693913 53.2408361,41.5625217 53.118918,41.6364783 C52.9788033,41.715913 52.7959262,41.7652174 52.5702869,41.7834783 L52.5338934,41.7834783 C52.4238033,41.7834783 52.3264508,41.7460435 52.2409262,41.673 C52.1372049,41.5935652 52.064418,41.4894783 52.0216557,41.3607391 C51.9907213,41.2630435 52.0043689,41.1717391 52.0625984,41.085913 C52.1208279,41.000087 52.2018033,40.9571739 52.3046148,40.9571739 L52.3783115,40.9571739 C52.4574672,40.9571739 52.4965902,40.9206522 52.4965902,40.8476087 L52.4965902,40.2687391 C52.4965902,40.2075652 52.4665656,40.1774348 52.4056066,40.1774348 L51.5731066,40.1774348 C51.5121475,40.1774348 51.482123,40.2075652 51.482123,40.2687391 L51.482123,41.3516087 C51.482123,41.4803478 51.4357213,41.589 51.3447377,41.6775652 C51.2537541,41.7661304 51.1436639,41.8108696 51.015377,41.8108696 C50.8870902,41.8108696 50.7788197,41.7661304 50.6905656,41.6775652 C50.6023115,41.589 50.5577295,41.4803478 50.5577295,41.3516087 L50.5577295,37.4976522 C50.5577295,37.4602174 50.5368033,37.4419565 50.494041,37.4419565 C50.3602951,37.4419565 50.2438361,37.3926522 50.1464836,37.2949565 C50.0491311,37.1972609 50,37.0813043 50,36.947087 L50,36.4412609 C50,36.3070435 50.0473115,36.192 50.1419344,36.0970435 C50.2365574,36.003 50.3502869,35.9555217 50.4849426,35.9555217 C50.5213361,35.9555217 50.5395328,35.9372609 50.5395328,35.9007391 L50.5395328,34.092 C50.5395328,33.8719565 50.6177787,33.6838696 50.7733607,33.5277391 C50.9289426,33.3716087 51.1163689,33.294 51.3356393,33.294 L52.6894754,33.294 C52.9087459,33.294 53.0961721,33.3716087 53.2517541,33.5277391 C53.4073361,33.6838696 53.4846721,33.8719565 53.4846721,34.092 L53.4846721,35.9007391 C53.4846721,35.9372609 53.5065082,35.9555217 53.5492705,35.9555217 C53.6884754,35.9555217 53.8094836,36.0057391 53.9104754,36.107087 C54.0105574,36.2075217 54.0615082,36.3289565 54.0615082,36.4695652 L54.0615082,36.9187826 C54.0615082,36.9799565 54.0915328,37.011 54.1524918,37.011 L58.1211967,37.011 C58.224918,37.011 58.3131721,37.0475217 58.3868689,37.1214783 C58.4596557,37.1945217 58.496959,37.283087 58.496959,37.3871739 C58.496959,37.4912609 58.4596557,37.5798261 58.3868689,37.6537826 C58.3131721,37.7268261 58.224918,37.7633478 58.1211967,37.7633478 L54.3171721,37.7633478 C54.2380164,37.7633478 54.1706885,37.7359565 54.1160984,37.6802609 C54.0615082,37.6254783 54.0333033,37.5588261 54.0333033,37.4793913 Z" id="Fill-8"></path>
                        <path d="M68.1613197,37.1753478 C68.1003607,37.1753478 68.0694262,37.2063913 68.0694262,37.2675652 L68.0694262,37.9925217 C68.0694262,38.0536957 68.1003607,38.0838261 68.1613197,38.0838261 L68.5634672,38.0838261 C68.6244262,38.0838261 68.6553607,38.0536957 68.6553607,37.9925217 L68.6553607,37.2675652 C68.6553607,37.2063913 68.6244262,37.1753478 68.5634672,37.1753478 L68.1613197,37.1753478 Z M68.1340246,38.7813913 C67.9147541,38.7813913 67.726418,38.7037826 67.5717459,38.5476522 C67.4161639,38.3915217 67.337918,38.2034348 67.337918,37.9833913 L67.337918,37.2766957 C67.337918,37.0502609 67.4161639,36.8603478 67.5717459,36.7078696 C67.726418,36.5544783 67.9147541,36.4777826 68.1340246,36.4777826 L68.6462623,36.4777826 C68.8719016,36.4777826 69.0602377,36.5544783 69.2130902,36.7078696 C69.3650328,36.8603478 69.441459,37.0502609 69.441459,37.2766957 L69.441459,37.9833913 C69.441459,38.2034348 69.3650328,38.3915217 69.2130902,38.5476522 C69.0602377,38.7037826 68.8719016,38.7813913 68.6462623,38.7813913 L68.1340246,38.7813913 Z M66.222459,35.1748696 C66.2097213,35.1867391 66.2069918,35.2004348 66.2133607,35.2159565 C66.2197295,35.2314783 66.2315574,35.2387826 66.2497541,35.2387826 L68.0694262,35.2387826 C68.087623,35.2387826 68.1003607,35.2314783 68.1058197,35.2159565 C68.1121885,35.2004348 68.109459,35.1867391 68.0976311,35.1748696 C67.7309672,34.8196957 67.4298115,34.4553913 67.1923443,34.0828696 C67.1796066,34.0646087 67.1623197,34.0554783 67.1413934,34.0554783 C67.1195574,34.0554783 67.1031803,34.0646087 67.0913525,34.0828696 C66.8657131,34.4553913 66.5754754,34.8196957 66.222459,35.1748696 Z M65.8203115,37.1753478 C65.7593525,37.1753478 65.728418,37.2063913 65.728418,37.2675652 L65.728418,37.9925217 C65.728418,38.0536957 65.7593525,38.0838261 65.8203115,38.0838261 L66.1678689,38.0838261 C66.227918,38.0838261 66.2588525,38.0536957 66.2588525,37.9925217 L66.2588525,37.2675652 C66.2588525,37.2063913 66.227918,37.1753478 66.1678689,37.1753478 L65.8203115,37.1753478 Z M65.7921066,38.7813913 C65.5728361,38.7813913 65.3854098,38.7037826 65.2298279,38.5476522 C65.0742459,38.3915217 64.9969098,38.2034348 64.9969098,37.9833913 L64.9969098,37.2766957 C64.9969098,37.0502609 65.0742459,36.8603478 65.2298279,36.7078696 C65.3854098,36.5544783 65.5728361,36.4777826 65.7921066,36.4777826 L66.222459,36.4777826 C66.4417295,36.4777826 66.6291557,36.5544783 66.7847377,36.7078696 C66.9403197,36.8603478 67.0185656,37.0502609 67.0185656,37.2766957 L67.0185656,37.9833913 C67.0185656,38.2034348 66.9403197,38.3915217 66.7847377,38.5476522 C66.6291557,38.7037826 66.4417295,38.7813913 66.222459,38.7813913 L65.7921066,38.7813913 Z M66.4881311,36.065087 C66.3352787,36.065087 66.2042623,36.0121304 66.0941721,35.9043913 C65.984082,35.7975652 65.9294918,35.667913 65.9294918,35.5145217 C65.9294918,35.5017391 65.9240328,35.4944348 65.9112951,35.4916957 C65.8994672,35.4880435 65.8903689,35.4898696 65.884,35.4962609 C65.7438852,35.6186087 65.601041,35.7318261 65.4536475,35.835913 C65.3808607,35.8906957 65.3017049,35.918087 65.2161803,35.918087 C65.173418,35.918087 65.1279262,35.9089565 65.0787951,35.8906957 C64.951418,35.8541739 64.8504262,35.771087 64.7776393,35.6432609 C64.734877,35.5574348 64.713041,35.4679565 64.713041,35.3766522 C64.713041,35.3282609 64.7166803,35.2816957 64.7230492,35.2387826 C64.7594426,35.0981739 64.834959,34.9876957 64.951418,34.9091739 C65.4882213,34.5229565 65.9540574,34.0308261 66.3507459,33.4309565 C66.5454508,33.1433478 66.7983852,33 67.1095492,33 C67.4261721,33 67.6882049,33.1378696 67.8956475,33.4126957 C68.3350984,34.0061739 68.820041,34.4773043 69.3504754,34.826087 C69.4778525,34.9055217 69.563377,35.0187391 69.6061393,35.1657391 C69.618877,35.2205217 69.6243361,35.2725652 69.6243361,35.3218696 C69.6243361,35.4131739 69.6006803,35.5017391 69.5515492,35.5875652 C69.4778525,35.729087 69.3686721,35.8203913 69.2221885,35.8633043 C69.1730574,35.8751739 69.1275656,35.8815652 69.0848033,35.8815652 C68.9874508,35.8815652 68.8964672,35.8505217 68.8109426,35.7893478 C68.7008525,35.7044348 68.5816639,35.6094783 68.4542869,35.5053913 C68.4415492,35.499 68.4306311,35.499 68.4224426,35.5053913 C68.4124344,35.5117826 68.4078852,35.520913 68.4078852,35.5327826 C68.4078852,35.6797826 68.3542049,35.8048696 68.2477541,35.9089565 C68.1413033,36.0130435 68.0148361,36.065087 67.8683525,36.065087 L66.4881311,36.065087 Z M63.2873279,40.2130435 C63.2873279,40.2687391 63.2709508,40.3171304 63.2409262,40.3600435 C63.1981639,40.4212174 63.1435738,40.4577391 63.0762459,40.4705217 L63.0307541,40.4705217 C62.981623,40.4705217 62.9388607,40.455 62.9024672,40.4248696 C62.8542459,40.3874348 62.826041,40.3353913 62.820582,40.2687391 C62.7832787,39.9254348 62.7195902,39.5766522 62.6276967,39.2223913 L62.6276967,39.1575652 C62.6276967,39.1210435 62.6377049,39.0845217 62.6559016,39.048 C62.6922951,38.9923043 62.7405164,38.9594348 62.8023852,38.9466522 L62.847877,38.9466522 C62.8960984,38.9466522 62.9425,38.9594348 62.9852623,38.9831739 C63.0398525,39.0206087 63.0762459,39.069 63.0944426,39.1301739 C63.2227295,39.6506087 63.2873279,40.0112609 63.2873279,40.2130435 Z M62.3356393,37.010087 C62.2746803,37.010087 62.2446557,37.0411304 62.2446557,37.1023043 L62.2446557,37.5058696 C62.2446557,37.5670435 62.2746803,37.5971739 62.3356393,37.5971739 L62.7195902,37.5971739 C62.7805492,37.5971739 62.8114836,37.5670435 62.8114836,37.5058696 L62.8114836,37.1023043 C62.8114836,37.0411304 62.7805492,37.010087 62.7195902,37.010087 L62.3356393,37.010087 Z M62.7195902,36.1846957 C62.7805492,36.1846957 62.8114836,36.1536522 62.8114836,36.0924783 L62.8114836,35.7071739 C62.8114836,35.646 62.7805492,35.6158696 62.7195902,35.6158696 L62.3356393,35.6158696 C62.2746803,35.6158696 62.2446557,35.646 62.2446557,35.7071739 L62.2446557,36.0924783 C62.2446557,36.1536522 62.2746803,36.1846957 62.3356393,36.1846957 L62.7195902,36.1846957 Z M62.8114836,34.302913 C62.8114836,34.2417391 62.7805492,34.2106957 62.7195902,34.2106957 L62.3356393,34.2106957 C62.2746803,34.2106957 62.2446557,34.2417391 62.2446557,34.302913 L62.2446557,34.6973478 C62.2446557,34.7594348 62.2746803,34.7895652 62.3356393,34.7895652 L62.7195902,34.7895652 C62.7805492,34.7895652 62.8114836,34.7594348 62.8114836,34.6973478 L62.8114836,34.302913 Z M62.0244754,39.2863043 C62.0190164,39.2187391 62.0353934,39.1593913 62.0754262,39.1073478 C62.1145492,39.0553043 62.1682295,39.026087 62.2346475,39.0206087 C62.3019754,39.0142174 62.3611148,39.0306522 62.4138852,39.0708261 C62.4648361,39.111 62.4939508,39.1612174 62.5003197,39.2223913 C62.5494508,39.614087 62.5731066,39.993 62.5731066,40.3600435 L62.5731066,40.4705217 C62.5731066,40.5198261 62.5612787,40.5636522 62.5367131,40.602913 C62.5130574,40.643087 62.4803033,40.6768696 62.4402705,40.7042609 C62.4011475,40.7316522 62.3602049,40.749 62.3174426,40.7544783 C62.2501148,40.7608696 62.1937049,40.7426087 62.1482131,40.6996957 C62.1027213,40.6567826 62.0790656,40.602 62.0790656,40.5344348 L62.0790656,40.287 C62.0790656,39.9692609 62.0608689,39.635087 62.0244754,39.2863043 Z M67.8592541,39.3684783 C67.8838197,39.2406522 67.9447787,39.1338261 68.0421311,39.048 C68.1340246,38.9740435 68.2350164,38.9375217 68.3441967,38.9375217 L68.3805902,38.9375217 C68.508877,38.9503043 68.6125984,39.005087 68.6917541,39.1027826 C68.759082,39.1822174 68.7918361,39.2680435 68.7918361,39.3602609 C68.7918361,39.384 68.7891066,39.4086522 68.7836475,39.4333043 C68.759082,39.5866957 68.7281475,39.7300435 68.6917541,39.8642609 C68.6790164,39.9199565 68.6944836,39.9692609 68.7372459,40.0112609 C69.0484098,40.329913 69.3077131,40.6202609 69.5151557,40.8832174 C69.5761148,40.9626522 69.6061393,41.0484783 69.6061393,41.1406957 C69.6061393,41.1644348 69.6025,41.189087 69.597041,41.2137391 C69.5788443,41.336087 69.5206148,41.4337826 69.4232623,41.5077391 C69.3441066,41.568913 69.2613115,41.5990435 69.1766967,41.5990435 C69.1521311,41.5990435 69.1275656,41.5963043 69.103,41.589913 C68.9874508,41.5716522 68.8928279,41.5132174 68.820041,41.4155217 C68.6972131,41.2502609 68.5580082,41.0731304 68.3987869,40.8832174 C68.386959,40.8649565 68.3696721,40.8576522 68.3487459,40.8603913 C68.3278197,40.8640435 68.3105328,40.874087 68.2987049,40.8923478 C68.2068115,41.0512174 68.1030902,41.1954783 67.987541,41.3233043 C67.8592541,41.4712174 67.704582,41.5442609 67.5207951,41.5442609 C67.5089672,41.5442609 67.4935,41.5406087 67.4753033,41.5351304 C67.2742295,41.5287391 67.094082,41.4520435 66.9357705,41.3050435 C66.9239426,41.2931739 66.9112049,41.2813043 66.899377,41.2685217 C66.8811803,41.2566522 66.8629836,41.2566522 66.8447869,41.2685217 C66.7892869,41.3296957 66.7237787,41.358 66.6473525,41.3516087 C66.5709262,41.3452174 66.5090574,41.3086957 66.4599262,41.2411304 C66.3625738,41.1187826 66.2497541,40.980913 66.1214672,40.8284348 C66.1096393,40.8092609 66.0932623,40.8019565 66.0714262,40.8056087 C66.0505,40.8083478 66.0332131,40.8193043 66.0213852,40.8375652 C65.9422295,40.9964348 65.8503361,41.1434348 65.7466148,41.2776522 C65.6065,41.4310435 65.4390902,41.5077391 65.2434754,41.5077391 L65.207082,41.5077391 C64.9941803,41.5013478 64.7958361,41.421913 64.612959,41.2685217 C64.6065902,41.2630435 64.6002213,41.2593913 64.5947623,41.2593913 C64.5765656,41.2411304 64.5565492,41.2347391 64.535623,41.2411304 C64.5137869,41.2475217 64.5001393,41.2630435 64.4937705,41.2867826 C64.4637459,41.3662174 64.435541,41.421913 64.4118852,41.4520435 C64.2717705,41.6355652 64.0852541,41.7423913 63.8541557,41.7734348 C63.7622623,41.7916957 63.6339754,41.8035652 63.4692951,41.8099565 L63.4601967,41.8099565 C63.3510164,41.8099565 63.2527541,41.7706957 63.1681393,41.6912609 C63.0762459,41.610913 63.0152869,41.5104783 62.9852623,41.3881304 C62.9606967,41.2968261 62.9743443,41.210087 63.0262049,41.1315652 C63.0780656,41.0512174 63.1499426,41.0146957 63.2409262,41.021087 L63.4056066,41.021087 C63.5093279,41.021087 63.592123,40.980913 63.6521721,40.9014783 C63.7076721,40.8156522 63.7531639,40.5408261 63.7895574,40.076087 C63.7895574,40.0696957 63.7868279,40.0633043 63.780459,40.056913 C63.7740902,40.0514348 63.7686311,40.0514348 63.7622623,40.056913 C63.7076721,40.076087 63.6521721,40.0706087 63.597582,40.0441304 C63.5429918,40.0158261 63.5093279,39.972 63.4975,39.9108261 C63.436541,39.6661304 63.3446475,39.3995217 63.2227295,39.111913 C63.1981639,39.0571304 63.1981639,39.0014348 63.2227295,38.9466522 C63.2472951,38.8918696 63.2873279,38.8553478 63.341918,38.8361739 C63.402877,38.817913 63.4620164,38.8215652 63.5202459,38.8462174 C63.5775656,38.8699565 63.6221475,38.9101304 63.6521721,38.964913 C63.7131311,39.1064348 63.7622623,39.2342609 63.7986557,39.3502174 C63.8050246,39.363 63.8113934,39.3675652 63.8177623,39.363913 C63.8232213,39.3611739 63.8259508,39.3566087 63.8259508,39.3502174 C63.8386885,39.1000435 63.8477869,38.8306957 63.8541557,38.543087 C63.8541557,38.5120435 63.8441475,38.4892174 63.8259508,38.4736957 C63.8077541,38.459087 63.7868279,38.4508696 63.7622623,38.4508696 L61.7870082,38.4508696 C61.671459,38.4508696 61.5722869,38.4097826 61.4894918,38.3276087 C61.4076066,38.2445217 61.3666639,38.1422609 61.3666639,38.019913 L61.3666639,37.6072174 C61.3666639,37.6008261 61.3693934,37.5971739 61.3757623,37.5971739 L61.3757623,34.1285217 C61.3757623,33.9084783 61.4530984,33.7203913 61.6086803,33.5642609 C61.7642623,33.4081304 61.9516885,33.3305217 62.170959,33.3305217 L64.2381066,33.3305217 C64.3536557,33.3305217 64.4546475,33.3725217 64.5401721,33.4583478 C64.6247869,33.5441739 64.6675492,33.6482609 64.6675492,33.7706087 C64.6675492,33.8929565 64.6247869,33.9970435 64.5401721,34.0828696 C64.4546475,34.1686957 64.3536557,34.2106957 64.2381066,34.2106957 L63.7531639,34.2106957 C63.6922049,34.2106957 63.6621803,34.2417391 63.6621803,34.302913 L63.6621803,34.7064783 C63.6621803,34.7612609 63.6885656,34.7895652 63.7440656,34.7895652 L64.0552295,34.7895652 C64.1644098,34.7895652 64.2608525,34.8306522 64.3427377,34.9128261 C64.4255328,34.995913 64.4664754,35.0936087 64.4664754,35.2068261 C64.4664754,35.3200435 64.4255328,35.4168261 64.3427377,35.4962609 C64.2608525,35.5756957 64.1644098,35.6158696 64.0552295,35.6158696 L63.7440656,35.6158696 C63.6885656,35.6158696 63.6621803,35.6432609 63.6621803,35.6980435 L63.6621803,36.0924783 C63.6621803,36.1536522 63.6885656,36.1846957 63.7440656,36.1846957 L64.1007213,36.1846957 C64.2108115,36.1846957 64.3063443,36.2239565 64.3891393,36.3033913 C64.4710246,36.3828261 64.5119672,36.4796087 64.5119672,36.5928261 C64.5119672,36.7060435 64.4710246,36.8037391 64.3891393,36.8868261 C64.3063443,36.969 64.2108115,37.010087 64.1007213,37.010087 L63.7440656,37.010087 C63.6885656,37.010087 63.6621803,37.0383913 63.6621803,37.0931739 L63.6621803,37.5058696 C63.6621803,37.5670435 63.6922049,37.5971739 63.7531639,37.5971739 L63.8723525,37.5971739 C63.8723525,37.5916957 63.875082,37.5889565 63.8814508,37.5889565 L64.3108934,37.5889565 C64.4328115,37.5889565 64.5365328,37.6346087 64.6220574,37.7268261 C64.7012131,37.8053478 64.7412459,37.9039565 64.7412459,38.019913 C64.7412459,38.5403478 64.7166803,39.2123478 64.6675492,40.0386522 C64.6366148,40.5097826 64.5947623,40.8622174 64.5401721,41.0941304 C64.5401721,41.106913 64.5456311,41.1169565 64.5583689,41.127 C64.5701967,41.1352174 64.5820246,41.1370435 64.5947623,41.1315652 C65.107,40.7581304 65.4299918,40.1737826 65.5637377,39.3785217 C65.5828443,39.2497826 65.6401639,39.1429565 65.7375164,39.0571304 C65.8294098,38.9831739 65.9294918,38.9466522 66.039582,38.9466522 L66.0759754,38.9466522 C66.1978934,38.9594348 66.3016148,39.0142174 66.3871393,39.111913 C66.4480984,39.1858696 66.478123,39.2707826 66.478123,39.3684783 C66.478123,39.3931304 66.4753934,39.4177826 66.4690246,39.4424348 C66.4508279,39.5711739 66.4262623,39.6962609 66.3962377,39.8186087 C66.3835,39.8743043 66.3989672,39.9226957 66.4417295,39.9656087 C66.7346967,40.2468261 66.9721639,40.5097826 67.155041,40.7544783 C67.1923443,40.8037826 67.2287377,40.8037826 67.2651311,40.7544783 C67.5635574,40.412087 67.7619016,39.950087 67.8592541,39.3684783 Z M61.5859344,41.0119565 C61.555,41.0913913 61.4958607,41.1434348 61.4076066,41.168087 C61.3184426,41.1918261 61.238377,41.1799565 61.1655902,41.1315652 C61.0855246,41.0886522 61.0336639,41.0238261 61.0100082,40.938913 C61.0036393,40.9014783 61,40.8649565 61,40.8284348 C61,40.7791304 61.0100082,40.7334783 61.0282049,40.6905652 C61.1619508,40.329913 61.2529344,39.8213478 61.3020656,39.1676087 C61.3084344,39.0872609 61.3430082,39.0215217 61.4076066,38.9694783 C61.4712951,38.9183478 61.5431721,38.901 61.6223279,38.9192609 C61.7078525,38.9311304 61.7779098,38.9731304 61.8325,39.0434348 C61.8870902,39.1137391 61.9116557,39.194087 61.9061967,39.2863043 C61.8570656,40.056913 61.7506148,40.6330435 61.5859344,41.0119565 Z" id="Fill-11"></path>
                    </g>
                </g>
            </g>
        </g>
    </g>
</svg>