<?xml version="1.0" encoding="UTF-8"?>
<svg width="56px" height="57px" viewBox="0 0 56 57" version="1.1" xmlns="http://www.w3.org/2000/svg" xmlns:xlink="http://www.w3.org/1999/xlink">
    <!-- Generator: Sketch 50.2 (55047) - http://www.bohemiancoding.com/sketch -->
    <title>生活提案</title>
    <desc>Created with Sketch.</desc>
    <defs></defs>
    <g id="Web-V2" stroke="none" stroke-width="1" fill="none" fill-rule="evenodd">
        <g id="Home_mobile" transform="translate(-172.000000, -245.000000)" fill-rule="nonzero">
            <g id="Group-2" transform="translate(154.000000, 245.000000)">
                <g id="生活提案" transform="translate(18.000000, 0.000000)">
                    <path d="M23.5038462,56.1615385 C23.9185287,56.1612278 24.3129593,55.9822087 24.5862122,55.6702879 C24.8594651,55.3583671 24.9850269,54.9438101 24.9307692,54.5326923 C24.1246477,48.8585263 19.2667192,44.6419773 13.5355769,44.6419773 C7.80443462,44.6419773 2.94650614,48.8585263 2.14038462,54.5326923 C2.08182346,54.9423595 2.2039986,55.3572717 2.47522617,55.6698292 C2.74645375,55.9823867 3.14001465,56.1617988 3.55384615,56.1615385 L23.5038462,56.1615385 Z" id="Shape" fill="#80C6F0"></path>
                    <polygon id="Shape" fill="#A4D9F5" points="15.9923077 45.4057692 11.0788462 45.4057692 11.7115385 56.1615385 15.3596154 56.1615385"></polygon>
                    <path d="M9.53076923,50.0096154 C9.63186695,49.5491549 10.0750015,49.2478235 10.5403846,49.3230769 C11.5279192,49.4895097 12.5273922,49.5750501 13.5288462,49.5788462 C16.2413988,49.5927492 18.9165375,48.9459108 21.3230769,47.6942308 C18.1786441,44.8033605 13.6918673,43.8915947 9.66851086,45.325886 C5.64515442,46.7601773 2.7469751,50.3046151 2.14038462,54.5326923 C2.08182346,54.9423595 2.2039986,55.3572717 2.47522617,55.6698292 C2.74645375,55.9823867 3.14001465,56.1617988 3.55384615,56.1615385 L10.675,56.1615385 C9.34230769,54.8692308 9.07307692,52.0692308 9.53076923,50.0096154 Z" id="Shape" fill="#000000" opacity="0.1"></path>
                    <path d="M27.0442308,34.3403846 C27.0442308,26.6538462 20.9865385,20.4076923 13.5288462,20.4076923 C6.07115385,20.4076923 0.0269230769,26.6538462 0.0269230769,34.3403846 C0.0269230769,42.0269231 6.07115385,47.3442308 13.5288462,47.3442308 C20.9865385,47.3442308 27.0442308,42.0403846 27.0442308,34.3403846 Z" id="Shape" fill="#FCD2BE"></path>
                    <path d="M21.0538462,45.2846154 C-0.282692308,45.3653846 2.08653846,28.175 10.7826923,20.7038462 C4.64423077,22.0096154 0.0269230769,27.6230769 0.0269230769,34.3403846 C0.0269230769,42.0403846 6.07115385,47.3442308 13.5288462,47.3442308 C16.3153846,47.3442308 18.9,46.6173077 21.0538462,45.2846154 Z" id="Shape" fill="#F9C7B2"></path>
                    <path d="M52.4461538,56.1615385 C52.8599854,56.1617988 53.2535463,55.9823867 53.5247738,55.6698292 C53.7960014,55.3572717 53.9181765,54.9423595 53.8596154,54.5326923 C53.0534939,48.8585263 48.1955654,44.6419773 42.4644231,44.6419773 C36.7332808,44.6419773 31.8753523,48.8585263 31.0692308,54.5326923 C31.0149731,54.9438101 31.1405349,55.3583671 31.4137878,55.6702879 C31.6870407,55.9822087 32.0814713,56.1612278 32.4961538,56.1615385 L52.4461538,56.1615385 Z" id="Shape" fill="#55A6B5"></path>
                    <path d="M38.0692308,45.5269231 L42.1346154,56.1615385 L42.8076923,56.1615385 L46.8596154,45.5269231 C44.0454756,44.360971 40.8833705,44.360971 38.0692308,45.5269231 Z" id="Shape" fill="#86DBD5"></path>
                    <path d="M38.4730769,50.0096154 C38.5679754,49.5449934 39.0157179,49.2405284 39.4826923,49.3230769 C40.4700812,49.4906557 41.4696487,49.5762043 42.4711538,49.5788462 C45.1796012,49.5943578 47.8507601,48.9473643 50.2519231,47.6942308 C47.1074903,44.8033605 42.6207135,43.8915947 38.597357,45.325886 C34.5740006,46.7601773 31.6758213,50.3046151 31.0692308,54.5326923 C31.0149731,54.9438101 31.1405349,55.3583671 31.4137878,55.6702879 C31.6870407,55.9822087 32.0814713,56.1612278 32.4961538,56.1615385 L39.6038462,56.1615385 C38.2846154,54.8692308 38.0153846,52.0692308 38.4730769,50.0096154 Z" id="Shape" fill="#000000" opacity="0.1"></path>
                    <circle id="Oval" fill="#C58F85" cx="42.4711538" cy="20.4076923" r="4.95384615"></circle>
                    <circle id="Oval" fill="#000000" opacity="0.1" cx="42.4711538" cy="20.4076923" r="4.95384615"></circle>
                    <path d="M55.9730769,34.3403846 C55.9730769,26.6538462 49.9288462,20.4076923 42.4711538,20.4076923 C35.0134615,20.4076923 28.9557692,26.6538462 28.9557692,34.3403846 C28.9557692,42.0269231 35.0134615,47.3442308 42.4711538,47.3442308 C49.9288462,47.3442308 55.9730769,42.0403846 55.9730769,34.3403846 Z" id="Shape" fill="#FCD2BE"></path>
                    <path d="M49.9826923,45.2846154 C28.6461538,45.3653846 31.0153846,28.175 39.725,20.7038462 C33.5730769,22.0096154 28.9557692,27.6230769 28.9557692,34.3403846 C28.9557692,42.0403846 35.0134615,47.3442308 42.4711538,47.3442308 C45.2442308,47.3442308 47.8423077,46.6173077 49.9826923,45.2846154 Z" id="Shape" fill="#F9C7B2"></path>
                    <path d="M34.2865385,0.107692308 L22.225,0.107692308 C20.2176574,0.107692308 18.5903846,1.73496504 18.5903846,3.74230769 L18.5903846,11.6442308 C18.5903846,13.6515734 20.2176574,15.2788462 22.225,15.2788462 L23.9615385,15.2788462 C24.0433191,15.2788462 24.1096154,15.3451425 24.1096154,15.4269231 L24.1096154,19.3307692 C24.1135774,19.5363112 24.2402018,19.7195116 24.4310782,19.7958621 C24.6219546,19.8722127 24.8399932,19.8268776 24.9846154,19.6807692 L29.0769231,15.3326923 C29.1045402,15.3015362 29.1431202,15.2822461 29.1846154,15.2788462 L34.2865385,15.2788462 C36.2938811,15.2788462 37.9211538,13.6515734 37.9211538,11.6442308 L37.9211538,3.74230769 C37.9211538,1.73496504 36.2938811,0.107692308 34.2865385,0.107692308 Z" id="Shape" fill="#EC5569"></path>
                    <path d="M25.6307692,13.9326923 C25.6307692,13.8384615 25.5769231,13.7711538 25.4961538,13.7711538 L23.8134615,13.7711538 C21.875,13.7711538 20.3,12.0615385 20.3,9.94807692 L20.3,1.61538462 C20.2965323,1.26972511 20.3418507,0.925305044 20.4346154,0.592307692 C19.2948557,1.23092038 18.5894157,2.43583251 18.5903846,3.74230769 L18.5903846,11.6442308 C18.5903846,13.6515734 20.2176574,15.2788462 22.225,15.2788462 L23.9615385,15.2788462 C24.0433191,15.2788462 24.1096154,15.3451425 24.1096154,15.4269231 L24.1096154,19.3307692 C24.1135774,19.5363112 24.2402018,19.7195116 24.4310782,19.7958621 C24.6219546,19.8722127 24.8399932,19.8268776 24.9846154,19.6807692 L25.6307692,18.9942308 L25.6307692,13.9326923 Z" id="Shape" fill="#E63950"></path>
                    <path d="M32.3346154,4.81923077 C31.4107785,3.90205056 29.9199907,3.90205056 28.9961538,4.81923077 L28.4846154,5.34423077 C28.355535,5.46394328 28.1560035,5.46394328 28.0269231,5.34423077 L27.5153846,4.83269231 C26.5915478,3.9155121 25.1007599,3.9155121 24.1769231,4.83269231 C23.7296666,5.27297145 23.4778056,5.87432121 23.4778056,6.50192308 C23.4778056,7.12952495 23.7296666,7.7308747 24.1769231,8.17115385 L28.0269231,12.0211538 C28.0855923,12.0855343 28.1686663,12.122224 28.2557692,12.122224 C28.3428721,12.122224 28.4259461,12.0855343 28.4846154,12.0211538 L32.3346154,8.17115385 C32.7793377,7.72678314 33.0292097,7.12387606 33.0292097,6.49519231 C33.0292097,5.86650856 32.7793377,5.26360147 32.3346154,4.81923077 Z" id="Shape" fill="#EC5569"></path>
                    <path d="M32.3346154,4.81923077 C31.4107785,3.90205056 29.9199907,3.90205056 28.9961538,4.81923077 L28.4846154,5.34423077 C28.355535,5.46394328 28.1560035,5.46394328 28.0269231,5.34423077 L27.5153846,4.83269231 C26.5915478,3.9155121 25.1007599,3.9155121 24.1769231,4.83269231 C23.7296666,5.27297145 23.4778056,5.87432121 23.4778056,6.50192308 C23.4778056,7.12952495 23.7296666,7.7308747 24.1769231,8.17115385 L28.0269231,12.0211538 C28.0855923,12.0855343 28.1686663,12.122224 28.2557692,12.122224 C28.3428721,12.122224 28.4259461,12.0855343 28.4846154,12.0211538 L32.3346154,8.17115385 C32.7793377,7.72678314 33.0292097,7.12387606 33.0292097,6.49519231 C33.0292097,5.86650856 32.7793377,5.26360147 32.3346154,4.81923077 Z" id="Shape" fill="#FFF5F5"></path>
                    <path d="M25.4153846,8.17115385 C24.9681281,7.7308747 24.7162671,7.12952495 24.7162671,6.50192308 C24.7162671,5.87432121 24.9681281,5.27297145 25.4153846,4.83269231 C25.7069319,4.54313242 26.0687758,4.33437634 26.4653846,4.22692308 C25.6491311,4.00308107 24.7755336,4.23432749 24.1769231,4.83269231 C23.7296666,5.27297145 23.4778056,5.87432121 23.4778056,6.50192308 C23.4778056,7.12952495 23.7296666,7.7308747 24.1769231,8.17115385 L28.0269231,12.0211538 C28.0855923,12.0855343 28.1686663,12.122224 28.2557692,12.122224 C28.3428721,12.122224 28.4259461,12.0855343 28.4846154,12.0211538 L28.875,11.6307692 L25.4153846,8.17115385 Z" id="Shape" fill="#DCE6EB"></path>
                    <ellipse id="Oval" fill="#EC7887" cx="6.16538462" cy="36.4673077" rx="2.71923077" ry="2.16730769"></ellipse>
                    <ellipse id="Oval" fill="#EC7887" cx="20.9057692" cy="36.4673077" rx="2.71923077" ry="2.16730769"></ellipse>
                    <path d="M7.75384615,35.1346154 C7.53606261,35.1346154 7.32719892,35.0481012 7.1732027,34.894105 C7.01920648,34.7401088 6.93269231,34.5312451 6.93269231,34.3134615 L6.93269231,33.3576923 C6.89198642,33.0417269 7.03770753,32.7307305 7.30655059,32.559808 C7.57539365,32.3888855 7.91883712,32.3888855 8.18768018,32.559808 C8.45652324,32.7307305 8.60224435,33.0417269 8.56153846,33.3576923 L8.56153846,34.3134615 C8.5651479,34.5299977 8.48164809,34.7389127 8.32978342,34.8933084 C8.17791875,35.0477042 7.97041236,35.1346455 7.75384615,35.1346154 Z" id="Shape" fill="#495059"></path>
                    <path d="M19.3173077,35.1346154 C19.0995242,35.1346154 18.8906605,35.0481012 18.7366642,34.894105 C18.582668,34.7401088 18.4961538,34.5312451 18.4961538,34.3134615 L18.4961538,33.3576923 C18.4961538,32.9041816 18.8637969,32.5365385 19.3173077,32.5365385 C19.7708184,32.5365385 20.1384615,32.9041816 20.1384615,33.3576923 L20.1384615,34.3134615 C20.1384615,34.5312451 20.0519474,34.7401088 19.8979511,34.894105 C19.7439549,35.0481012 19.5350912,35.1346154 19.3173077,35.1346154 Z" id="Shape" fill="#495059"></path>
                    <path d="M13.5288462,35.875 C12.7067965,35.8726003 11.9261042,35.5141692 11.3884615,34.8923077 C11.183064,34.6728906 11.1139495,34.3587907 11.2082743,34.0734228 C11.3025991,33.7880549 11.5452909,33.5770186 11.840992,33.5232335 C12.1366931,33.4694484 12.438153,33.5815089 12.6269231,33.8153846 C12.850716,34.0814696 13.1811657,34.2343643 13.5288462,34.2326923 C13.8804246,34.2346409 14.2151141,34.0820619 14.4442308,33.8153846 C14.7417618,33.4736878 15.2598268,33.4375438 15.6019231,33.7346154 C15.7673533,33.8773763 15.8678815,34.0810737 15.8805643,34.2992181 C15.8932471,34.5173624 15.8170022,34.7313374 15.6692308,34.8923077 C15.1315882,35.5141692 14.3508958,35.8726003 13.5288462,35.875 Z" id="Shape" fill="#495059"></path>
                    <path d="M26.4653846,30.3153846 C24.7961538,24.5807692 19.6403846,20.4076923 13.5288462,20.4076923 C7.41730769,20.4076923 2.14038462,24.6884615 0.538461538,30.5307692 C1.97884615,31.1365385 5.96346154,29.3192308 8.23846154,27.3807692 C8.45550887,27.1981586 8.77563532,27.2097995 8.97884615,27.4076923 C12.0884615,30.4634615 21.1211538,31.7826923 26.4653846,30.3153846 Z" id="Shape" fill="#495059"></path>
                    <path d="M42.4711538,20.4076923 C36.2923077,20.4076923 31.0826923,24.6884615 29.4807692,30.5173077 C31.6346154,34.0980769 39.5903846,29.4269231 42.1211538,28.3769231 C42.3404441,28.2833961 42.588402,28.2833961 42.8076923,28.3769231 C45.3519231,29.4269231 53.2942308,34.0980769 55.4615385,30.5173077 C53.8461538,24.6884615 48.6365385,20.4076923 42.4711538,20.4076923 Z" id="Shape" fill="#C58F85"></path>
                    <ellipse id="Oval" fill="#EC7887" cx="35.3634615" cy="36.4538462" rx="2.625" ry="2.08653846"></ellipse>
                    <ellipse id="Oval" fill="#EC7887" cx="49.5653846" cy="36.4538462" rx="2.625" ry="2.08653846"></ellipse>
                    <path d="M36.8980769,35.1884615 C36.6802934,35.1884615 36.4714297,35.1019474 36.3174335,34.9479511 C36.1634373,34.7939549 36.0769231,34.5850912 36.0769231,34.3673077 L36.0769231,33.4519231 C36.0362172,33.1359577 36.1819383,32.8249613 36.4507814,32.6540388 C36.7196244,32.4831163 37.0630679,32.4831163 37.3319109,32.6540388 C37.600754,32.8249613 37.7464751,33.1359577 37.7057692,33.4519231 L37.7057692,34.3673077 C37.7093787,34.5838438 37.6258789,34.7927588 37.4740142,34.9471546 C37.3221495,35.1015503 37.1146431,35.1884916 36.8980769,35.1884615 Z" id="Shape" fill="#495059"></path>
                    <path d="M48.0442308,35.1884615 C47.59072,35.1884615 47.2230769,34.8208184 47.2230769,34.3673077 L47.2230769,33.4519231 C47.2230769,32.9984123 47.59072,32.6307692 48.0442308,32.6307692 C48.4977415,32.6307692 48.8653846,32.9984123 48.8653846,33.4519231 L48.8653846,34.3673077 C48.8653846,34.5850912 48.7788704,34.7939549 48.6248742,34.9479511 C48.470878,35.1019474 48.2620143,35.1884615 48.0442308,35.1884615 Z" id="Shape" fill="#495059"></path>
                    <path d="M42.4711538,35.9019231 C41.672764,35.9012389 40.9130182,35.5581279 40.3846154,34.9596154 C40.2384505,34.7968969 40.1645287,34.5818555 40.1797518,34.3636589 C40.1949748,34.1454623 40.2980408,33.9427689 40.4653846,33.8019231 C40.6258319,33.656474 40.8387146,33.5828497 41.0547383,33.5980984 C41.270762,33.6133472 41.4711913,33.7161464 41.6096154,33.8826923 C41.8295111,34.1259895 42.1432293,34.2632412 42.4711538,34.2596154 C42.797671,34.261324 43.1081908,34.1183863 43.3192308,33.8692308 C43.6203322,33.5272391 44.1416621,33.4940909 44.4836538,33.7951923 C44.8256456,34.0962937 44.8587937,34.6176237 44.5576923,34.9596154 C44.0272049,35.5552975 43.2687985,35.8978036 42.4711538,35.9019231 Z" id="Shape" fill="#495059"></path>
                </g>
            </g>
        </g>
    </g>
</svg>