<?xml version="1.0" encoding="UTF-8"?>
<svg width="56px" height="56px" viewBox="0 0 56 56" version="1.1" xmlns="http://www.w3.org/2000/svg" xmlns:xlink="http://www.w3.org/1999/xlink">
    <!-- Generator: Sketch 50.2 (55047) - http://www.bohemiancoding.com/sketch -->
    <title>精選體驗</title>
    <desc>Created with Sketch.</desc>
    <defs></defs>
    <g id="Web-V2" stroke="none" stroke-width="1" fill="none" fill-rule="evenodd">
        <g id="Home_mobile" transform="translate(-41.000000, -246.000000)" fill-rule="nonzero">
            <g id="Group-3" transform="translate(24.000000, 246.000000)">
                <g id="精選體驗" transform="translate(17.000000, 0.000000)">
                    <circle id="Oval" fill="#FCBF29" cx="43.7192982" cy="1.47368421" r="1.47368421"></circle>
                    <path d="M22.1047385,16.701748 C21.4717192,16.7027163 20.8927743,16.3433533 20.6103347,15.7741407 L18.6365162,11.8008437 L14.6779211,9.82038835 C14.1119513,9.53630932 13.754386,8.95523473 13.754386,8.31956382 C13.754386,7.6838929 14.1119513,7.10281831 14.6779211,6.81873928 L18.6365162,4.82727379 L20.6130742,0.85260046 C21.1774137,-0.284200153 23.0334332,-0.284200153 23.6005122,0.85260046 L25.5798097,4.82727379 L29.5342955,6.81323419 C30.0993839,7.09803397 30.4561404,7.67885709 30.4561404,8.31405873 C30.4561404,8.94926037 30.0993839,9.53008349 29.5342955,9.81488327 L25.5798097,11.8008437 L23.6005122,15.775517 C23.3174695,16.3446397 22.7379455,16.7034995 22.1047385,16.701748 Z" id="Shape" fill="#FEDB41"></path>
                    <path d="M54.3625731,13.0989675 L52.7251462,13.0989675 L52.7251462,11.4617645 C52.7251462,10.5575622 51.9920452,9.8245614 51.0877193,9.8245614 C50.1833934,9.8245614 49.4502924,10.5575622 49.4502924,11.4617645 L49.4502924,13.0989675 L47.8128656,13.0989675 C47.2278693,13.0989675 46.6873104,13.4110166 46.3948122,13.917569 C46.1023141,14.4241214 46.1023141,15.0482197 46.3948122,15.5547721 C46.6873104,16.0613245 47.2278693,16.3733737 47.8128656,16.3733736 L49.4502924,16.3733736 L49.4502924,18.0119198 C49.4502924,18.916122 50.1833934,19.6491228 51.0877193,19.6491228 C51.9920452,19.6491228 52.7251462,18.916122 52.7251462,18.0119198 L52.7251462,16.3733736 L54.3625731,16.3733736 C55.266899,16.3733736 56,15.6403728 56,14.7361706 C56,13.8319683 55.266899,13.0989675 54.3625731,13.0989675 Z" id="Shape" fill="#FCBF29"></path>
                    <path d="M47.1578947,56 L31.7082939,55.999888 C28.7150538,56.0134172 25.8436075,54.8003269 23.7468851,52.6364586 L20.1382771,48.9798002 C19.8227039,48.6865947 19.6449186,48.271422 19.6491983,47.8376802 L19.6491983,28.0320079 C19.6452725,27.5976889 19.8139569,27.1800205 20.1172793,26.8730236 C20.4206016,26.5660268 20.8330709,26.3955013 21.2618363,26.3998341 L24.4844687,26.3998341 L29.5761749,21.2087449 C32.5193869,18.2738029 34.1692881,14.2602729 34.1523657,10.0767574 C34.1879022,8.29930325 35.6205592,6.87719298 37.375659,6.87719298 C39.1307588,6.87719298 40.5634159,8.29930325 40.5989523,10.0767574 L40.5989523,12.5578222 C40.5861538,16.5328546 39.8878614,20.4750603 38.5355687,24.2066425 L37.7305716,26.3944784 L46.4824373,26.3944784 L46.7401951,37.5371774 L47.1578947,56 Z" id="Shape" fill="#FCD2BE"></path>
                    <path d="M53.379824,41.0998374 C53.4952802,41.0638402 53.609378,41.0238434 53.7207593,40.9771804 C53.8860527,40.9081749 54.0462654,40.8279884 54.200242,40.7371992 L54.3510142,40.64254 C54.7454898,40.3806661 55.0852871,40.0471427 55.3520871,39.6599505 C55.3846865,39.6119543 55.4172859,39.5626248 55.448527,39.5119622 C55.5730287,39.3104088 55.677206,39.0974172 55.7595795,38.8760121 C55.7799541,38.8200165 55.7989704,38.7640209 55.8179867,38.7066921 C55.9285685,38.3556505 55.9844378,37.9902152 55.9837003,37.6227773 C55.9837003,35.5736049 54.3279229,33.8404078 52.2741613,33.8404078 C54.3318852,33.8404078 56,32.2030925 56,30.1833618 C56,28.1636311 54.3318852,26.5263158 52.2741613,26.5263158 L43.0240843,26.5263158 C40.9663604,26.5263158 39.2982456,28.1636311 39.2982456,30.1833618 C39.2982456,32.2030925 40.9663604,33.8404078 43.0240843,33.8404078 C40.9703227,33.8404078 39.3145453,35.5736049 39.3145453,37.6227773 C39.3130996,38.5887549 39.7035041,39.5155574 40.3995304,40.1984824 C41.0955568,40.8814074 42.0399362,41.2642641 43.0240843,41.2624913 C40.9703227,41.2624913 39.3145453,42.9956884 39.3145453,45.01153 C39.3058516,45.9828504 39.692792,46.9173422 40.3893706,47.6073183 C41.0859492,48.2972943 42.0344543,48.6855899 43.0240843,48.685908 C40.9663604,48.685908 39.2982456,50.3232233 39.2982456,52.342954 C39.2982456,54.3626847 40.9663604,56 43.0240843,56 L48.9626066,56 C51.0203305,56 52.6884453,54.3626847 52.6884453,52.342954 C52.6884453,50.3232233 51.0203305,48.685908 48.9626066,48.685908 L52.2741613,48.685908 C53.2637914,48.6855899 54.2122964,48.2972943 54.908875,47.6073183 C55.6054536,46.9173422 55.992394,45.9828504 55.9837003,45.01153 C55.9837003,42.9970217 54.3279229,41.2624913 52.2741613,41.2624913 C52.4637652,41.2629535 52.6531257,41.2491362 52.8405757,41.2211612 C53.0231269,41.1938253 53.203368,41.1532734 53.379824,41.0998374 Z" id="Shape" fill="#F9C7B2"></path>
                    <path d="M21.9416978,22.5965717 L15.3916808,22.5965717 C14.9561572,22.5922519 14.5372036,22.7620746 14.2292265,23.0677719 C13.9212495,23.3734693 13.7501604,23.7893216 13.7545123,24.2216214 L13.7545123,50.4410455 C13.7490689,50.8740347 13.9196759,51.290926 14.2277734,51.5974956 C14.5358709,51.9040651 14.9554505,52.0744334 15.3916808,52.0700945 L21.9416978,52.0700945 C22.3772215,52.0744143 22.796175,51.9045917 23.1041521,51.5988943 C23.4121292,51.2931969 23.5832183,50.8773446 23.5788663,50.4450448 L23.5788663,24.2216214 C23.5832183,23.7893216 23.4121292,23.3734693 23.1041521,23.0677719 C22.796175,22.7620746 22.3772215,22.5922519 21.9416978,22.5965717 Z" id="Shape" fill="#A4D9F5"></path>
                    <path d="M15.0426731,19.6492041 L1.65908134,19.6492041 C1.21775024,19.6448388 0.793210171,19.8164539 0.481126377,20.1253778 C0.169042584,20.4343018 -0.00432784868,20.8545434 8.21189476e-05,21.2914061 L8.21189476e-05,54.3563825 C-0.00432190578,54.7933666 0.16900619,55.2137421 0.481048655,55.5228785 C0.793091121,55.832015 1.21762411,56.0039328 1.65908134,55.9999317 L15.0426731,55.9999317 C15.4841303,56.0039328 15.9086633,55.832015 16.2207057,55.5228785 C16.5327482,55.2137421 16.7060763,54.7933666 16.7016723,54.3563825 L16.7016723,21.2914061 C16.7060822,20.8545434 16.5327118,20.4343018 16.220628,20.1253778 C15.9085442,19.8164539 15.4840042,19.6448388 15.0426731,19.6492041 Z" id="Shape" fill="#80C6F0"></path>
                    <circle id="Oval" fill="#CAE8F9" cx="8.35087719" cy="48.6315789" r="2.45614035"></circle>
                </g>
            </g>
        </g>
    </g>
</svg>