<?xml version="1.0" encoding="UTF-8"?>
<svg width="69px" height="56px" viewBox="0 0 69 56" version="1.1" xmlns="http://www.w3.org/2000/svg" xmlns:xlink="http://www.w3.org/1999/xlink">
    <!-- Generator: Sketch 50.2 (55047) - http://www.bohemiancoding.com/sketch -->
    <title>線上預約</title>
    <desc>Created with Sketch.</desc>
    <defs>
        <rect id="path-1" x="0" y="0" width="69" height="56"></rect>
    </defs>
    <g id="線上預約" stroke="none" stroke-width="1" fill="none" fill-rule="evenodd">
        <g id="Group-2">
            <g>
                <mask id="mask-2" fill="white">
                    <use xlink:href="#path-1"></use>
                </mask>
                <g id="Mask"></g>
                <g mask="url(#mask-2)" fill-rule="nonzero">
                    <g transform="translate(0.000000, 4.000000)">
                        <path d="M58.4632391,0.0253984576 L10.0724936,0.0253984576 C8.47634225,0.022909744 6.94484916,0.655876606 5.81619836,1.78452741 C4.68754756,2.9131782 4.0545807,4.44467129 4.05706941,6.04082262 L4.05706941,46.1436504 C4.05202066,46.6769787 4.26165438,47.1899329 4.63879133,47.5670699 C5.01592828,47.9442068 5.52888251,48.1538405 6.0622108,48.1487918 L62.4735219,48.1487918 C63.0068501,48.1538405 63.5198044,47.9442068 63.8969413,47.5670699 C64.2740783,47.1899329 64.483712,46.6769787 64.4786632,46.1436504 L64.4786632,6.04082262 C64.481152,4.44467129 63.8481851,2.9131782 62.7195343,1.78452741 C61.5908835,0.655876606 60.0593904,0.022909744 58.4632391,0.0253984576 Z" id="Shape" fill="#898989"></path>
                        <path d="M58.4632391,4.03568123 L10.0724936,4.03568123 C9.5390551,4.03026519 9.02588667,4.23978092 8.64866927,4.61699832 C8.27145187,4.99421572 8.06193615,5.50738415 8.06735219,6.04082262 L8.06724973,44.138509 L60.4684829,44.138509 L60.4683805,6.04082262 C60.4737965,5.50738415 60.2642808,4.99421572 59.8870634,4.61699832 C59.509846,4.23978092 58.9966775,4.03026519 58.4632391,4.03568123 Z" id="Shape" fill="#FFFFFF"></path>
                        <path d="M2.05192802,44.138509 C0.929048843,44.138509 0.0467866324,44.7052956 0.0467866324,45.4271465 L0.0467866324,46.7171208 C0.0467866324,49.5550643 3.65604113,51.877018 8.06735219,51.877018 L34.2678663,51.877018 L34.2678663,44.138509 L2.05192802,44.138509 Z" id="Shape" fill="#9FA0A0"></path>
                        <path d="M66.4838046,44.138509 L34.2678663,44.138509 L34.2678663,51.877018 L60.4683805,51.877018 C64.8796915,51.877018 68.488946,49.5550643 68.488946,46.7171208 L68.488946,45.4271465 C68.488946,44.7052956 67.6066838,44.138509 66.4838046,44.138509 Z" id="Shape" fill="#B5B5B6"></path>
                        <circle id="Oval" fill="#FCBF29" cx="45.6263239" cy="13.3328535" r="1.04802057"></circle>
                        <path d="M51.9157841,23.5269923 L50.8677635,23.5269923 L50.8677635,22.4789717 C50.8677635,21.9001659 50.3985487,21.4309512 49.8197429,21.4309512 C49.2409372,21.4309512 48.7717224,21.9001659 48.7717224,22.4789717 L48.7717224,23.5269923 L47.722365,23.5269923 C47.1577545,23.5471537 46.7104549,24.0107109 46.7104549,24.5756812 C46.7104549,25.1406516 47.1577545,25.6042087 47.722365,25.6243702 L48.7717224,25.6243702 L48.7717224,26.6723907 C48.7717224,27.2511965 49.2409372,27.7204113 49.8197429,27.7204113 C50.3985487,27.7204113 50.8677635,27.2511965 50.8677635,26.6723907 L50.8677635,25.6243702 L51.9157841,25.6243702 C52.2993742,25.6380676 52.6598361,25.4412385 52.8556947,25.1111349 C53.0515532,24.7810313 53.0515532,24.3703312 52.8556947,24.0402276 C52.6598361,23.710124 52.2993742,23.5132948 51.9157841,23.5269923 Z" id="Shape" fill="#FCBF29"></path>
                        <path d="M22.1741902,34.2277635 L21.2785604,34.2277635 L21.2785604,33.3321337 C21.2785604,32.837491 20.8775733,32.4365039 20.3829306,32.4365039 C19.8882879,32.4365039 19.4873008,32.837491 19.4873008,33.3321337 L19.4873008,34.2277635 L18.591671,34.2277635 C18.0970283,34.2277635 17.6960412,34.6287507 17.6960412,35.1233933 C17.6960412,35.618036 18.0970283,36.0190231 18.591671,36.0190231 L19.4873008,36.0190231 L19.4873008,36.914653 C19.4873008,37.4092956 19.8882879,37.8102828 20.3829306,37.8102828 C20.8775733,37.8102828 21.2785604,37.4092956 21.2785604,36.914653 L21.2785604,36.0190231 L22.1741902,36.0190231 C22.494168,36.0190232 22.7898396,35.8483171 22.9498285,35.5712082 C23.1098173,35.2940994 23.1098173,34.9526872 22.9498285,34.6755784 C22.7898396,34.3984695 22.494168,34.2277635 22.1741902,34.2277635 Z" id="Shape" fill="#FCBF29"></path>
                        <circle id="Oval" fill="#FCBF29" cx="21.1301799" cy="24.5589717" r="1"></circle>
                        <path d="M27.6054499,11.9867352 L26.9063239,11.9867352 L26.9063239,11.2876093 C26.9063239,10.9014926 26.5933146,10.5884833 26.2071979,10.5884833 C25.8210813,10.5884833 25.508072,10.9014926 25.508072,11.2876093 L25.508072,11.9867352 L24.808946,11.9867352 C24.4228294,11.9867352 24.1098201,12.2997446 24.1098201,12.6858612 C24.1098201,13.0719778 24.4228294,13.3849871 24.808946,13.3849871 L25.508072,13.3849871 L25.508072,14.0841131 C25.508072,14.4702297 25.8210813,14.7832391 26.2071979,14.7832391 C26.5933146,14.7832391 26.9063239,14.4702297 26.9063239,14.0841131 L26.9063239,13.3849871 L27.6054499,13.3849871 C27.9915665,13.3849871 28.3045758,13.0719778 28.3045758,12.6858612 C28.3045758,12.2997446 27.9915665,11.9867352 27.6054499,11.9867352 Z" id="Shape" fill="#FCBF29"></path>
                        <path d="M42.0291003,21.9562982 L32.6717738,31.6384576 L32.6878149,32.6797943 L33.1182519,32.6797943 L43.2455527,24.5175321 C42.9534571,23.6134674 42.5425995,22.7521948 42.0237532,21.9562982 L42.0291003,21.9562982 Z" id="Shape" fill="#FF6800"></path>
                        <path d="M44.7052956,24.96 C44.7052955,28.7692587 42.4105106,32.2033829 38.891111,33.6608732 C35.3717114,35.1183635 31.3208753,34.3121537 28.6277051,31.6182187 C25.9345349,28.9242837 25.1294753,24.8732189 26.5879648,21.3542333 C28.0464543,17.8352476 31.4812299,15.5414379 35.2904884,15.5425193 C37.7882683,15.5421647 40.1838474,16.5342468 41.9500445,18.3004439 C43.7162416,20.066641 44.7083238,22.4622201 44.7079692,24.96 L44.7052956,24.96 Z" id="Shape" fill="#FF6800"></path>
                        <path d="M42.7763496,20.9002571 L41.108072,19.2493573 C40.8774955,19.0285115 40.5138669,19.0285115 40.2832905,19.2493573 L33.1770694,26.6015424 L30.1025193,23.5697686 C29.872393,23.3490906 29.5092009,23.3490906 29.2790746,23.5697686 L27.8086375,25.026838 C27.5883601,25.2514203 27.5883601,25.6109962 27.8086375,25.8355784 L32.7239075,30.7067352 C33.0107043,30.9246535 33.4075991,30.9246535 33.6943959,30.7067352 L42.7763496,21.7237018 C42.9970277,21.4935755 42.9970277,21.1303834 42.7763496,20.9002571 Z" id="Shape" fill="#F2F1EF"></path>
                        <path d="M33.6863753,30.7000514 L42.7763496,21.7237018 C42.996627,21.4991196 42.996627,21.1395437 42.7763496,20.9149614 L42.5089974,20.6649871 L33.1917738,29.8164524 L28.0412339,24.7995887 L27.8206684,25.0201542 C27.600391,25.2447365 27.600391,25.6043124 27.8206684,25.8288946 L32.7359383,30.7000514 C32.8652685,30.8239702 33.0433671,30.8833364 33.2211825,30.8617995 C33.3943192,30.8809067 33.5669268,30.8215729 33.6917224,30.7000514 L33.6863753,30.7000514 Z" id="Shape" fill="#E6E5E3"></path>
                    </g>
                </g>
            </g>
        </g>
    </g>
</svg>